<svg width="160" height="80"  fill="none" xmlns="http://www.w3.org/2000/svg">
<rect width="160" height="80" rx="8" fill="#191919"/>
<path fill-rule="evenodd" clip-rule="evenodd" d="M55.2046 29H61.7966C61.5276 29.23 61.3088 29.5211 61.1857 29.9343C60.2785 29.9765 59.3667 30.108 58.4596 30.338C57.4429 30.5963 56.5585 31.2207 56.5585 32.2958C56.5585 32.6432 56.6497 32.9719 56.8047 33.2582L56.7956 33.0329L56.9323 32.9625C57.0554 32.8967 57.1876 32.8404 57.3153 32.7841C57.6435 32.6432 57.9854 32.5258 58.3273 32.4272C60.3332 31.8451 63.2873 31.8451 65.2932 32.4272C65.6351 32.5258 65.977 32.6479 66.3053 32.7841C66.4329 32.8357 66.5651 32.8967 66.6882 32.9625L66.825 33.0329L66.8159 33.2582C66.9709 32.9719 67.062 32.6432 67.062 32.2958C67.062 31.2207 66.1776 30.5869 65.161 30.338C64.1946 30.1033 63.2281 29.9624 62.2616 29.9296C62.4622 29.6667 62.7722 29.4977 63.0822 29.3333C63.2782 29.2254 63.4743 29.1221 63.652 29H68.416C69.0634 29 69.5922 29.5446 69.5922 30.2113V49.7842C69.5922 50.4508 69.0634 50.9954 68.416 50.9954H55.2046C54.5572 50.9954 54.0284 50.4508 54.0284 49.7842V30.2113C54.0238 29.5446 54.5526 29 55.2046 29ZM62.795 38.5306C64.4681 37.5494 65.234 36.4179 65.3297 34.5446C64.6504 36.8357 63.6566 37.9437 62.795 38.5306ZM57.1511 35.601C57.3882 38.8874 60.8347 39.1644 61.8103 41.0236C62.7859 39.1644 66.2323 38.8827 66.4694 35.601L66.5788 33.1784C64.2219 31.9155 59.4032 31.9155 57.0463 33.1784L57.1511 35.601Z" fill="#CCCCCC"/>
<path fill-rule="evenodd" clip-rule="evenodd" d="M37.1881 29H50.3996C51.0469 29 51.5757 29.5446 51.5757 30.2113V49.7842C51.5757 50.4508 51.0469 50.9954 50.3996 50.9954H37.1881C36.5407 50.9954 36.0119 50.4508 36.0119 49.7842V30.2113C36.0119 29.5446 36.5407 29 37.1881 29ZM44.8514 44.0564C46.5246 43.0752 47.2904 41.9437 47.3861 40.0705C46.7069 42.3615 45.7131 43.4696 44.8514 44.0564ZM39.1393 41.3052C39.3763 44.5916 42.8228 44.8733 43.7984 46.7278C44.774 44.8686 48.2204 44.5869 48.4575 41.3052L48.5669 38.8827C46.21 37.6198 41.3913 37.6198 39.0344 38.8827L39.1393 41.3052ZM43.1738 35.6385C42.2666 35.6808 41.3549 35.8122 40.4476 36.0423C39.431 36.3005 38.5466 36.9249 38.5466 38C38.5466 38.3475 38.6378 38.6761 38.7928 38.9625L38.7837 38.7371L38.9204 38.6667C39.0435 38.601 39.1757 38.5446 39.3034 38.4883C39.6316 38.3475 39.9735 38.2301 40.3154 38.1315C42.3213 37.5494 45.2754 37.5494 47.2813 38.1315C47.6232 38.2301 47.9651 38.3521 48.2934 38.4883C48.421 38.54 48.5532 38.601 48.6763 38.6667L48.8131 38.7371L48.804 38.9625C48.959 38.6761 49.0501 38.3475 49.0501 38C49.0501 36.9249 48.1657 36.2911 47.1491 36.0423C46.1826 35.8075 45.2161 35.6667 44.2497 35.6339C44.4503 35.3709 44.7603 35.2019 45.0703 35.0376C45.7541 34.6667 46.4197 34.3052 46.5017 33.2676C45.2344 33.4319 45.8726 33.3709 44.6235 34.1643C44.0217 34.493 43.4063 34.8263 43.1738 35.6385Z" fill="#CCCCCC"/>
<path fill-rule="evenodd" clip-rule="evenodd" d="M19.1762 29H21.0772L21.1228 30.0282C21.3599 33.3146 24.8063 33.5916 25.7819 35.4508C26.7575 33.5916 30.204 33.3099 30.441 30.0282L30.4866 29H32.3876C33.035 29 33.5638 29.5446 33.5638 30.2113V49.7842C33.5638 50.4508 33.035 50.9954 32.3876 50.9954H30.4912L30.5504 49.695C28.1935 48.432 23.3749 48.432 21.0179 49.695L21.0772 50.9954H19.1762C18.5288 51.0001 18 50.4508 18 49.7842V30.2113C18 29.5446 18.5288 29 19.1762 29ZM29.3925 29C28.7224 30.9578 27.8151 31.9484 27.0174 32.4883C28.5354 31.5963 29.3059 30.5775 29.5065 29H29.3925ZM25.1619 46.4555C24.2547 46.4977 23.3429 46.6292 22.4357 46.8592C21.4191 47.1175 20.5347 47.7419 20.5347 48.817C20.5347 49.1644 20.6259 49.493 20.7809 49.7794L20.7718 49.5541L20.9085 49.4837C21.0316 49.4179 21.1638 49.3616 21.2915 49.3053C21.6197 49.1644 21.9616 49.0471 22.3035 48.9484C24.3094 48.3663 27.2635 48.3663 29.2694 48.9484C29.6113 49.0471 29.9532 49.1691 30.2815 49.3053C30.4091 49.3569 30.5413 49.4179 30.6644 49.4837L30.8012 49.5541L30.7921 49.7794C30.9471 49.493 31.0382 49.1644 31.0382 48.817C31.0382 47.7419 30.1538 47.1081 29.1372 46.8592C28.1707 46.6245 27.2043 46.4837 26.2378 46.4508C26.4384 46.1879 26.7484 46.0188 27.0584 45.8546C27.7422 45.4836 28.4078 45.1221 28.4899 44.0846C27.2225 44.2489 27.8607 44.1879 26.6116 44.9813C26.0099 45.3053 25.3944 45.6386 25.1619 46.4555Z" fill="#CCCCCC"/>
<path fill-rule="evenodd" clip-rule="evenodd" d="M82.3522 41.6527C85.0011 41.6527 86.6285 39.9579 86.6285 37.6527V37.6199C86.6285 35.3475 85.0511 34.4743 83.4374 34.1926L86.442 31.2395V29.2114H78.4138V31.5165H83.0819L80.2463 34.4508L80.6518 36.1644H81.7371C83.196 36.1644 84.0618 36.7231 84.0618 37.7184V37.7513C84.0618 38.6621 83.3645 39.2349 82.3796 39.2349C81.1764 39.2349 80.3281 38.709 79.5122 37.7654L77.7208 39.54C78.7375 40.7795 80.2145 41.6527 82.3522 41.6527Z" fill="#CCCCCC"/>
<path fill-rule="evenodd" clip-rule="evenodd" d="M99.8993 41.6526C103.564 41.6526 106.227 38.8029 106.227 35.324V35.2911C106.227 31.8122 103.596 29 99.9311 29C96.2659 29 93.6032 31.8498 93.6032 35.324V35.3568C93.6032 38.8404 96.2341 41.6526 99.8993 41.6526ZM99.9311 39.1691C97.8247 39.1691 96.334 37.4226 96.334 35.324V35.2911C96.334 33.1925 97.7929 31.4836 99.8993 31.4836C102.006 31.4836 103.496 33.2301 103.496 35.3287V35.3616C103.496 37.4601 102.037 39.1691 99.9311 39.1691Z" fill="#CCCCCC"/>
<path fill-rule="evenodd" clip-rule="evenodd" d="M106.77 41.4415H109.432L110.517 38.6997H115.541L116.626 41.4415H119.356L114.273 29.1222H111.862L106.77 41.4415ZM111.456 36.3241L113.033 32.357L114.611 36.3241H111.456Z" fill="#CCCCCC"/>
<path fill-rule="evenodd" clip-rule="evenodd" d="M121.194 41.4414H123.81V37.7043L125.183 36.2348L128.866 41.4414H132.003L126.947 34.3992L131.784 29.2114H128.629L123.81 34.5588V29.2114H121.194V41.4414Z" fill="#CCCCCC"/>
<path fill-rule="evenodd" clip-rule="evenodd" d="M137.637 41.6198C140.199 41.6198 142 40.2583 142 37.8264V37.7935C142 35.662 140.641 34.77 138.234 34.1221C136.183 33.5822 135.672 33.3193 135.672 32.5165V32.4789C135.672 31.8827 136.197 31.4132 137.2 31.4132C138.203 31.4132 139.237 31.8686 140.286 32.6198L141.644 30.5916C140.441 29.5963 138.964 29.0376 137.231 29.0376C134.806 29.0376 133.074 30.5071 133.074 32.7231V32.7559C133.074 35.1832 134.619 35.8686 137.013 36.4977C139 37.0236 139.406 37.371 139.406 38.0517V38.0846C139.406 38.8029 138.763 39.2395 137.692 39.2395C136.333 39.2395 135.216 38.6621 134.145 37.7559L132.6 39.6621C134.022 40.9719 135.841 41.6198 137.637 41.6198Z" fill="#CCCCCC"/>
<path fill-rule="evenodd" clip-rule="evenodd" d="M80.3281 51C81.2356 51 81.9374 50.6338 82.4482 50.1878V47.9718H80.2919V48.9437H81.3903V49.6714C81.1122 49.8779 80.7616 49.9765 80.3649 49.9765C79.4848 49.9765 78.8648 49.2911 78.8648 48.3568V48.3427C78.8648 47.4742 79.4941 46.7512 80.2875 46.7512C80.862 46.7512 81.2038 46.9389 81.5818 47.2676L82.2704 46.4131C81.7552 45.9624 81.2126 45.7136 80.3237 45.7136C78.8236 45.7136 77.7252 46.9014 77.7252 48.3568V48.3709C77.7208 49.8826 78.783 51 80.3281 51Z" fill="#CCCCCC"/>
<path fill-rule="evenodd" clip-rule="evenodd" d="M89.8745 50.911H90.9866L91.4382 49.7654H93.5352L93.9868 50.911H95.1264L93.0019 45.7654H91.9945L89.8745 50.911ZM91.8305 48.7748L92.4911 47.1175L93.1522 48.7748H91.8305Z" fill="#CCCCCC"/>
<path fill-rule="evenodd" clip-rule="evenodd" d="M102.707 50.911H103.774V47.5965L105.156 49.7608H105.187L106.583 47.5777V50.911H107.667V45.803H106.492L105.187 47.9627L103.884 45.803H102.707V50.911Z" fill="#CCCCCC"/>
<path d="M116.803 45.803H115.714V50.911H116.803V45.803Z" fill="#CCCCCC"/>
<path fill-rule="evenodd" clip-rule="evenodd" d="M124.85 50.911H125.93V47.6622L128.333 50.911H129.258V45.803H128.182V48.9485L125.857 45.803H124.85V50.911Z" fill="#CCCCCC"/>
<path fill-rule="evenodd" clip-rule="evenodd" d="M139.643 51C140.55 51 141.253 50.6338 141.763 50.1878V47.9718H139.607V48.9437H140.706V49.6714C140.427 49.8779 140.076 49.9765 139.68 49.9765C138.8 49.9765 138.175 49.2911 138.175 48.3568V48.3427C138.175 47.4742 138.805 46.7512 139.598 46.7512C140.172 46.7512 140.514 46.9389 140.892 47.2676L141.581 46.4131C141.066 45.9624 140.523 45.7136 139.634 45.7136C138.135 45.7136 137.036 46.9014 137.036 48.3568V48.3709C137.036 49.8826 138.102 51 139.643 51Z" fill="#CCCCCC"/>
</svg>
