<svg width="160" height="80"  fill="none" xmlns="http://www.w3.org/2000/svg">
<rect width="160" height="80" rx="8" fill="#191919"/>
<path fill-rule="evenodd" clip-rule="evenodd" d="M52.7375 29.2904H51.8209V50.7094H52.7375V29.2904ZM70.5634 29.2904H69.5646V50.7094H70.5634V29.2904ZM141.836 50.7094H140.847L140.837 29.2904H141.836V50.7094ZM124.01 29.2904H123.009V50.7094H124.01V29.2904ZM87.3904 29.2904H88.3526V50.7094H87.3904V29.2904ZM106.182 29.2904H105.18V50.7094H106.182V29.2904ZM55.816 47.1284L60.2314 32.8714H62.1163L66.4829 47.1284H64.4823L63.4439 43.523H58.8855L57.8441 47.1284H55.816ZM61.1327 35.7612L59.33 41.9853H62.9872L61.2088 35.7612H61.1327ZM43.6967 41.4098V39.8903H48.1059V45.076C47.7192 45.7246 47.1681 46.2636 46.5103 46.6351C45.6668 47.1375 44.6924 47.3355 43.7089 47.3385C42.3599 47.3385 41.0383 46.9152 40.0791 45.9682C39.1717 45.073 38.7089 43.7423 38.7089 42.0766V37.8684C38.7089 36.2332 39.1534 34.939 40.0061 34.0529C40.9044 33.1241 42.1528 32.6643 43.4439 32.6643C44.735 32.6643 45.8861 32.9536 46.7783 33.7758C47.6218 34.5553 48.0359 35.6942 48.042 36.8422V36.9183H46.1145C46.1327 36.1753 45.9104 35.4262 45.408 34.8781C44.9056 34.33 44.2052 34.1838 43.4409 34.1838C42.6766 34.1838 41.897 34.5279 41.4007 35.1491C40.9044 35.7703 40.6638 36.6656 40.6638 37.8927V42.1528C40.6638 43.3769 40.9257 44.2904 41.4738 44.9299C42.0219 45.5693 42.8227 45.8982 43.6601 45.8952C44.2143 45.8921 44.7777 45.8068 45.2527 45.5237C45.6029 45.3135 45.8709 44.9877 46.0536 44.6223V41.4128H43.6875L43.6967 41.4098ZM84.6163 32.8714H82.0219L78.9769 44.1503L75.8953 32.8714H73.3405V47.1284H75.3045V41.6412L75.1614 36.157H75.1979L78.2856 47.1284H79.6224L82.7284 36.157H82.7984L82.6127 41.6412V47.1284H84.6163V32.8714ZM117.345 32.8714H119.312V47.1284H117.345L111.937 36.5316H111.861V47.1284H109.881V32.8714H111.845L117.256 43.4713L117.329 43.4347L117.345 32.8714ZM100.122 32.8653H93.4136V34.4061H95.7887V45.5267H93.4136V47.1376H100.122V45.5419H97.7528V34.4214H100.122V32.8653ZM34.0712 50.7095H19.0804C18.5749 50.7095 18.1638 50.2985 18.1638 49.793V30.2101C18.1638 29.7047 18.5749 29.2936 19.0804 29.2936H34.0712C34.5767 29.2936 34.9878 29.7047 34.9878 30.2101V49.793C34.9878 50.2985 34.5767 50.7095 34.0712 50.7095ZM29.3849 39.7228C30.0762 39.8568 30.6791 40.2739 31.0506 40.8738H31.0445C31.4312 41.495 31.617 42.1345 31.617 42.9475C31.617 44.3178 31.212 45.3744 30.4142 46.0565C29.5768 46.7752 28.4958 47.1375 27.3996 47.1436H22.296V32.8531H26.8058C28.0421 32.8531 29.0561 33.1424 29.9483 33.8275C30.8313 34.5035 31.1998 35.5632 31.1998 36.7325C31.1998 37.3598 31.0689 37.9901 30.7552 38.5352C30.4446 39.0711 29.9513 39.4761 29.3849 39.7228ZM26.346 35.0882H24.9452L24.9483 35.0912V38.9189H26.4952C27.0372 38.9189 27.4361 38.7301 27.7589 38.386C28.0999 38.0236 28.1882 37.509 28.2004 37.0127C28.2126 36.4828 28.1091 35.9408 27.7345 35.5663C27.3752 35.2039 26.9458 35.0882 26.346 35.0882ZM26.7844 44.9055C27.293 44.9055 27.832 44.7989 28.1639 44.4366C28.5323 44.0376 28.6176 43.4713 28.6176 42.9262C28.6176 42.3872 28.5536 41.8361 28.2522 41.3884C27.9842 40.9865 27.5 40.8312 26.9732 40.8312H24.9452V44.9055H26.7844ZM132.701 39.869V41.3885L132.692 41.3915H135.058V44.601C134.875 44.9664 134.607 45.2922 134.257 45.5024C133.782 45.7855 133.219 45.8708 132.664 45.8738C131.827 45.8769 131.026 45.548 130.478 44.9086C129.93 44.2691 129.668 43.3556 129.668 42.1315V37.8714C129.668 36.6443 129.909 35.749 130.405 35.1278C130.901 34.5066 131.681 34.1625 132.445 34.1625C133.209 34.1625 133.91 34.3087 134.412 34.8568C134.915 35.4049 135.137 36.154 135.119 36.897H137.046V36.8209C137.04 35.6729 136.626 34.534 135.783 33.7545C134.89 32.9323 133.739 32.643 132.448 32.643C131.157 32.643 129.909 33.1028 129.01 34.0316C128.158 34.9177 127.713 36.2119 127.713 37.8471V42.0553C127.713 43.721 128.176 45.0517 129.083 45.9469C130.043 46.8939 131.364 47.3172 132.713 47.3172C133.697 47.3142 134.671 47.1162 135.515 46.6138C136.172 46.2423 136.723 45.7033 137.11 45.0547V39.869H132.701Z" fill="#CCCCCC"/>
</svg>
