<svg width="160" height="80" fill="none" xmlns="http://www.w3.org/2000/svg">
<rect width="160" height="80" rx="8" fill="#191919"/>
<path fill-rule="evenodd" clip-rule="evenodd" d="M133.891 29.8724H128.255V31.8976C128.255 32.0862 128.32 32.2428 128.45 32.3659C128.581 32.489 128.762 32.5505 128.995 32.5505H130.563V34.9561C130.221 35.1016 129.871 35.2175 129.512 35.3046C129.153 35.3917 128.752 35.4357 128.309 35.4357C127.59 35.4357 126.935 35.3174 126.344 35.0816C125.752 34.8459 125.244 34.503 124.82 34.053C124.395 33.6031 124.066 33.0516 123.834 32.3987C123.602 31.7457 123.486 30.9985 123.486 30.1561C123.486 29.3937 123.591 28.7024 123.801 28.0822C124.012 27.462 124.311 26.9305 124.7 26.4878C125.088 26.045 125.558 25.7021 126.109 25.4592C126.661 25.2162 127.281 25.0947 127.971 25.0947C128.341 25.0947 128.675 25.1123 128.972 25.1491C129.27 25.185 129.552 25.2434 129.821 25.3233C130.089 25.4032 130.352 25.5063 130.61 25.6334C130.867 25.7605 131.141 25.9107 131.431 26.085C131.736 26.2736 132.02 26.3383 132.286 26.2808C132.55 26.2224 132.766 26.0666 132.933 25.8124L134 24.19C133.681 23.8855 133.317 23.6026 132.911 23.3413C132.505 23.0799 132.057 22.8546 131.567 22.6659C131.077 22.4773 130.542 22.3287 129.962 22.22C129.381 22.1105 128.76 22.0562 128.1 22.0562C126.823 22.0562 125.667 22.256 124.633 22.6548C123.599 23.0544 122.718 23.613 121.988 24.3315C121.258 25.05 120.697 25.9043 120.306 26.8953C119.913 27.8856 119.717 28.9941 119.717 30.1553C119.717 31.3166 119.924 32.3923 120.338 33.3833C120.752 34.3735 121.34 35.2303 122.101 35.952C122.863 36.6744 123.779 37.2403 124.85 37.6503C125.92 38.0611 127.108 38.2657 128.415 38.2657C129.417 38.2657 130.376 38.1314 131.295 37.8629C132.213 37.5943 133.079 37.1628 133.891 36.5673V29.8724ZM34.633 22.5349C33.8634 22.3319 32.9307 22.2304 31.835 22.2304H26V38.089H32.3353C33.2864 38.089 34.1319 37.9676 34.872 37.7246C35.6121 37.4808 36.2346 37.1436 36.7389 36.712C37.2432 36.2804 37.6261 35.7737 37.8874 35.1935C38.1487 34.6133 38.279 33.9851 38.279 33.3106C38.279 32.4107 38.0289 31.6778 37.5278 31.112C37.0275 30.5461 36.2546 30.1361 35.2093 29.882C35.688 29.7086 36.098 29.5016 36.4392 29.2618C36.7805 29.0228 37.0594 28.7599 37.2776 28.473C37.495 28.1861 37.6548 27.8776 37.7563 27.5475C37.8578 27.2174 37.909 26.8746 37.909 26.5189C37.909 25.866 37.7987 25.2746 37.5773 24.7447C37.3559 24.2148 37.0019 23.7649 36.516 23.3948C36.03 23.0248 35.4019 22.7379 34.633 22.5349ZM29.6795 28.9038V24.9852H31.835C32.249 24.9852 32.6062 25.018 32.9075 25.0835C33.2088 25.1483 33.4574 25.257 33.6532 25.4096C33.849 25.5623 33.9945 25.7637 34.0888 26.0138C34.1831 26.264 34.2302 26.5709 34.2302 26.9553C34.2302 27.3397 34.1703 27.6594 34.0504 27.9135C33.9305 28.1677 33.7563 28.3667 33.5277 28.5121C33.2992 28.6568 33.0218 28.7591 32.695 28.8166C32.3681 28.875 32.0012 28.9038 31.5952 28.9038H29.6795ZM33.4622 35.1304C33.1537 35.2535 32.7565 35.315 32.2706 35.315H29.6795V31.3637H32.249C32.7133 31.3637 33.0986 31.4069 33.4031 31.494C33.7075 31.5811 33.9521 31.7042 34.1375 31.864C34.3221 32.0239 34.4532 32.2197 34.5291 32.4522C34.6051 32.6848 34.6434 32.9461 34.6434 33.2363C34.6434 33.4904 34.6107 33.7406 34.5451 33.9875C34.4804 34.2345 34.3605 34.4558 34.1863 34.6516C34.012 34.8475 33.7707 35.0073 33.4622 35.1304ZM56.5952 49.5497H50.9568V51.5749C50.9568 51.7635 51.0224 51.9201 51.1526 52.0432C51.2829 52.1663 51.4643 52.2278 51.6969 52.2278H53.2641V54.6334C52.9229 54.7789 52.5736 54.8948 52.214 54.9819C51.8551 55.069 51.4539 55.1129 51.0112 55.1129C50.2927 55.1129 49.6373 54.9947 49.0459 54.7589C48.4545 54.5231 47.9462 54.1803 47.5218 53.7303C47.0975 53.2804 46.7682 52.7289 46.5364 52.076C46.3038 51.423 46.188 50.6757 46.188 49.8334C46.188 49.0709 46.2935 48.3796 46.5036 47.7594C46.7146 47.1393 47.0135 46.6078 47.402 46.165C47.7904 45.7223 48.2603 45.3794 48.8118 45.1364C49.3632 44.8935 49.9834 44.772 50.6731 44.772C51.0431 44.772 51.3772 44.7896 51.6745 44.8263C51.9726 44.8623 52.2547 44.9207 52.5241 45.0006C52.7926 45.0805 53.0555 45.1836 53.3129 45.3107C53.571 45.4377 53.8444 45.588 54.1353 45.7622C54.4398 45.9508 54.7251 46.0156 54.9896 45.958C55.255 45.8997 55.4707 45.7438 55.6378 45.4897L56.7047 43.8673C56.385 43.5628 56.0222 43.2799 55.6162 43.0185C55.2094 42.7572 54.7618 42.5318 54.2719 42.3432C53.782 42.1546 53.2466 42.0059 52.6663 41.8973C52.0853 41.7878 51.4651 41.7334 50.805 41.7334C49.5278 41.7334 48.3722 41.9332 47.338 42.332C46.3038 42.7316 45.4223 43.2903 44.6926 44.0088C43.963 44.7272 43.4019 45.5816 43.0103 46.5726C42.6179 47.5628 42.4221 48.6713 42.4221 49.8326C42.4221 50.9938 42.6283 52.0696 43.0423 53.0606C43.4563 54.0508 44.0445 54.9075 44.8061 55.6292C45.5678 56.3517 46.4837 56.9175 47.5546 57.3275C48.6247 57.7383 49.8132 57.9429 51.1199 57.9429C52.1213 57.9429 53.0811 57.8087 53.9994 57.5401C54.9169 57.2716 55.7824 56.84 56.5952 56.2446V49.5497ZM70.2025 57.7687H73.0541L66.9146 41.9076H63.1479L57.0084 57.7687H59.8824C60.1869 57.7687 60.4426 57.6872 60.6496 57.5241C60.8566 57.3611 60.9997 57.1773 61.0796 56.9743L62.0163 54.209H68.0471L68.9837 56.9743C69.0852 57.2061 69.2339 57.3971 69.4297 57.5457C69.6255 57.6944 69.8828 57.7687 70.2025 57.7687ZM65.7398 47.3614L67.2095 51.7051H62.8658L64.3244 47.383C64.4331 47.1073 64.5489 46.7804 64.6728 46.4032C64.7959 46.026 64.9126 45.616 65.0213 45.1732C65.1443 45.6088 65.2682 46.0132 65.3913 46.3872C65.5144 46.7612 65.6311 47.0857 65.7398 47.3614ZM92.1384 41.9076V57.7687H88.8944V48.6458C88.8944 48.4356 88.9 48.207 88.9104 47.96C88.9216 47.7131 88.9415 47.4629 88.9703 47.2088L84.7577 55.3623C84.6266 55.6164 84.4508 55.8082 84.2294 55.9393C84.008 56.0696 83.7563 56.1351 83.4734 56.1351H82.9723C82.6893 56.1351 82.4368 56.0696 82.2154 55.9393C81.994 55.8082 81.8182 55.6164 81.6871 55.3623L77.4745 47.1872C77.4961 47.4485 77.5145 47.7043 77.5289 47.9544C77.5432 48.2046 77.5504 48.4356 77.5504 48.6458V57.7687H74.3065V41.9076H77.1149C77.2747 41.9076 77.4138 41.9116 77.5337 41.9188C77.6535 41.926 77.7606 41.9476 77.8549 41.9844C77.9492 42.0211 78.0348 42.0771 78.1107 42.153C78.1866 42.2289 78.2609 42.336 78.3337 42.4743L82.416 50.5191C82.5607 50.7948 82.7005 51.0817 82.8348 51.379C82.9691 51.6763 83.0977 51.9816 83.2216 52.2933C83.3447 51.9745 83.4734 51.662 83.6084 51.3575C83.7427 51.0522 83.8857 50.7621 84.0384 50.4863L88.1096 42.4743C88.1815 42.3368 88.2566 42.2289 88.3325 42.153C88.4085 42.0771 88.494 42.0203 88.5883 41.9844C88.6826 41.9476 88.7897 41.9268 88.9096 41.9188C89.0294 41.9116 89.1693 41.9076 89.3284 41.9076H92.1368H92.1384ZM98.9092 48.4396V44.7384H105.419V41.9076H95.2073V57.7687H105.419V54.9387H98.9092V51.1609H103.895V48.4396H98.9092ZM116.446 45.13C116.338 45.3043 116.223 45.4353 116.103 45.5225C115.983 45.6096 115.829 45.6527 115.641 45.6527C115.474 45.6527 115.294 45.6 115.102 45.4945L115.068 45.4761C114.884 45.376 114.678 45.2639 114.449 45.1412C114.206 45.0102 113.928 44.8927 113.616 44.7872C113.304 44.6817 112.948 44.6289 112.549 44.6289C111.86 44.6289 111.346 44.776 111.009 45.0701C110.672 45.3642 110.503 45.7614 110.503 46.2617C110.503 46.5814 110.604 46.8459 110.807 47.0561C111.01 47.2663 111.277 47.4485 111.607 47.6004C111.937 47.753 112.315 47.8929 112.74 48.02C113.164 48.1471 113.598 48.2885 114.041 48.4444C114.483 48.6002 114.917 48.784 115.342 48.9942C115.766 49.2052 116.143 49.4737 116.474 49.7998C116.804 50.1267 117.071 50.5239 117.274 50.9922C117.477 51.4598 117.579 52.0248 117.579 52.6849C117.579 53.4178 117.452 54.1043 117.197 54.7429C116.943 55.3815 116.576 55.9385 116.093 56.414C115.61 56.8896 115.016 57.2628 114.308 57.5353C113.599 57.8079 112.795 57.9437 111.896 57.9437C111.402 57.9437 110.901 57.8926 110.388 57.7911C109.877 57.6896 109.381 57.5465 108.903 57.3611C108.424 57.1757 107.973 56.9567 107.553 56.7026C107.131 56.4484 106.765 56.1655 106.453 55.8538L107.541 54.1339C107.629 54.0108 107.743 53.9069 107.884 53.8238C108.026 53.7407 108.18 53.6983 108.347 53.6983C108.564 53.6983 108.784 53.7671 109.006 53.9053C109.227 54.0436 109.477 54.1954 109.757 54.3625C110.037 54.5295 110.357 54.6822 110.72 54.8196C111.083 54.9579 111.511 55.0266 112.004 55.0266C112.672 55.0266 113.191 54.8796 113.561 54.5855C113.931 54.2914 114.117 53.8254 114.117 53.1868C114.117 52.8168 114.015 52.5155 113.812 52.2829C113.609 52.0512 113.342 51.8586 113.012 51.7059C112.682 51.5533 112.306 51.4198 111.885 51.3031C111.464 51.1872 111.032 51.0578 110.59 50.9163C110.147 50.7748 109.715 50.6006 109.294 50.3936C108.873 50.1866 108.497 49.9149 108.167 49.5768C107.837 49.2396 107.57 48.8192 107.367 48.3141C107.164 47.8098 107.063 47.1872 107.063 46.4471C107.063 45.8525 107.183 45.2715 107.422 44.7057C107.661 44.1398 108.013 43.6355 108.477 43.1928C108.942 42.75 109.512 42.396 110.187 42.1314C110.862 41.8669 111.635 41.7342 112.505 41.7342C112.991 41.7342 113.465 41.7726 113.926 41.8485C114.387 41.9244 114.824 42.0371 115.237 42.1858C115.65 42.3344 116.037 42.5126 116.397 42.7188C116.756 42.9258 117.077 43.1592 117.36 43.4213L116.445 45.13H116.446ZM93.8742 22.2304V38.0914H90.6302V28.9685C90.6302 28.7583 90.6358 28.5297 90.6462 28.2828C90.6574 28.0358 90.6774 27.7857 90.7062 27.5315L86.4936 35.685C86.3633 35.9392 86.1867 36.131 85.9653 36.2621C85.7439 36.3923 85.4914 36.4579 85.2084 36.4579H84.7073C84.4244 36.4579 84.1719 36.3923 83.9505 36.2621C83.7291 36.131 83.5533 35.9392 83.4222 35.685L79.2096 27.5099C79.2312 27.7713 79.2495 28.027 79.2639 28.2772C79.2783 28.5273 79.2855 28.7583 79.2855 28.9685V38.0914H76.0415V22.2304H78.8499C79.0098 22.2304 79.1496 22.2344 79.2687 22.2416C79.3886 22.2488 79.4957 22.2703 79.59 22.3071C79.6843 22.3439 79.7698 22.3998 79.8458 22.4757C79.9217 22.5517 79.996 22.6588 80.0687 22.797L84.1511 30.8418C84.2965 31.1176 84.4356 31.4045 84.5699 31.7018C84.7041 31.9991 84.8328 32.3044 84.9567 32.6161C85.0798 32.2972 85.2084 31.9847 85.3435 31.6802C85.4778 31.3749 85.6208 31.0848 85.7735 30.8091L89.8446 22.797C89.9174 22.6596 89.9917 22.5517 90.0676 22.4757C90.1435 22.3998 90.229 22.3431 90.3234 22.3071C90.4177 22.2703 90.5247 22.2496 90.6446 22.2416C90.7645 22.2344 90.9044 22.2304 91.0634 22.2304H93.8718H93.8742ZM96.944 38.0914H100.645V22.2304H96.944V38.0914ZM117.562 22.2304V38.0914H115.646C115.363 38.0914 115.125 38.0459 114.933 37.9556C114.741 37.8653 114.551 37.707 114.362 37.4816L106.883 28.0214C106.912 28.3044 106.932 28.5785 106.943 28.8438C106.954 29.1084 106.959 29.3569 106.959 29.5895V38.0914H103.715V22.2304H105.652C105.812 22.2304 105.946 22.2376 106.055 22.252C106.164 22.2663 106.262 22.2943 106.349 22.3335C106.436 22.3734 106.519 22.4294 106.599 22.5021C106.679 22.5748 106.769 22.6723 106.872 22.7962L114.415 32.3212C114.379 32.0167 114.354 31.721 114.34 31.434C114.325 31.1479 114.318 30.877 114.318 30.6228V22.2304H117.562ZM70.6525 30.9425C70.2073 33.3609 68.095 35.116 65.6311 35.116C65.5927 35.116 65.5543 35.116 65.5168 35.1144L65.4566 35.1128C65.1113 35.1041 64.7183 35.0943 63.8161 34.7092C63.0402 34.3778 62.762 34.1563 62.3084 33.7951C62.2041 33.7121 62.0906 33.6216 61.9595 33.5208C61.7171 33.3344 61.4105 33.0418 61.0821 32.7283L61.082 32.7283L61.082 32.7283C60.8668 32.5229 60.6423 32.3086 60.4202 32.1094C60.2472 32.2988 60.0051 32.5644 59.7503 32.844L59.7502 32.8442L59.7485 32.846C59.1823 33.4675 58.5538 34.1572 58.4806 34.2321C58.9673 34.7595 60.1629 35.7985 60.6416 36.1637L60.5713 36.0998C61.6286 36.9797 62.9138 37.5935 64.3284 37.8285C64.7695 37.8988 65.1531 37.9308 65.5208 37.9308C65.9212 37.9308 66.2505 37.9108 66.5997 37.8717C69.7598 37.4848 72.4003 35.2383 73.2635 32.1621L70.6525 30.9417V30.9425ZM65.6319 24.9045C64.0974 24.9045 62.722 25.5886 61.7853 26.6636V26.666C61.0949 27.4761 60.4149 28.3348 59.7568 29.166C59.2683 29.7828 58.7919 30.3845 58.3319 30.9401C57.2522 32.2436 55.6506 33.8109 55.5874 33.8692C55.4811 33.9683 55.3756 34.0666 55.2717 34.1609C55.2438 34.1865 55.2166 34.2113 55.1886 34.2361C55.1597 34.2619 55.1308 34.288 55.1019 34.314C55.0702 34.3426 55.0386 34.371 55.0072 34.3991C54.8642 34.5254 54.7227 34.6477 54.5836 34.7659C54.5665 34.7805 54.5492 34.7954 54.5319 34.8104C54.5065 34.8324 54.481 34.8545 54.4558 34.8754C54.2735 35.0281 54.0945 35.1743 53.9187 35.3134C53.9107 35.3195 53.9029 35.3254 53.8951 35.3313C53.8826 35.3407 53.8703 35.3499 53.858 35.3597C53.8325 35.3798 53.8076 35.3988 53.7824 35.418L53.7676 35.4293C53.6462 35.5236 53.5247 35.6163 53.4064 35.7042C53.3553 35.7418 53.3057 35.7777 53.2562 35.8137C53.1379 35.8992 53.0212 35.9823 52.9061 36.0622C52.8846 36.0769 52.8633 36.0915 52.8421 36.1061C52.8111 36.1273 52.7803 36.1485 52.7495 36.1693C52.6328 36.2477 52.5185 36.3228 52.4058 36.3955C52.386 36.408 52.3661 36.4208 52.3464 36.4336C52.3232 36.4486 52.3 36.4636 52.2771 36.4778C51.9686 36.6712 51.6729 36.8423 51.3892 36.9917C51.3636 37.005 51.3388 37.0176 51.314 37.0302C51.3015 37.0365 51.2891 37.0429 51.2765 37.0493C51.1734 37.1028 51.0719 37.1532 50.972 37.2011C50.9289 37.2219 50.8857 37.2419 50.8425 37.2619C50.7482 37.3058 50.6547 37.3466 50.5636 37.3857C50.5497 37.3916 50.5353 37.3982 50.5211 37.4047C50.51 37.4097 50.499 37.4147 50.4885 37.4193L50.4879 37.4196C50.4684 37.4295 50.0168 37.6585 49.5798 37.7646C49.3041 37.8309 48.97 37.91 48.6064 37.9492C48.2427 37.9883 47.5666 37.9684 47.4123 37.9588C43.1414 37.6726 39.7855 33.9939 40.0277 29.6007C40.2555 25.472 43.7032 22.1696 47.8383 22.1161C50.3215 22.0833 52.5369 23.203 54.0697 24.9205C54.0848 24.9373 54.1383 24.9945 54.2164 25.0781C54.5366 25.4208 55.2711 26.2069 55.4779 26.4742C55.434 26.5277 54.1297 28.0662 53.5838 28.6464C53.2841 28.2684 51.8503 26.7331 51.6745 26.5613C50.6252 25.5351 49.209 24.8438 47.6018 24.9501C45.0899 25.1171 43.0415 27.1463 42.8537 29.6566C42.6363 32.5657 44.8717 35.0073 47.7017 35.1432C48.2867 35.1496 48.5728 35.0928 48.9436 34.9777C49.3073 34.8642 49.75 34.682 50.2743 34.3943C50.3478 34.3535 50.423 34.3112 50.5005 34.2664C50.5195 34.2554 50.5386 34.244 50.5579 34.2326C50.5693 34.2258 50.5808 34.2189 50.5924 34.2121C50.6739 34.1633 50.7562 34.1122 50.8409 34.0594L50.841 34.0594C50.8666 34.0434 50.8921 34.0275 50.9185 34.0107C51.0128 33.9499 51.1103 33.8852 51.2086 33.8189C51.2217 33.8098 51.235 33.8008 51.2483 33.7918C51.2643 33.7811 51.2804 33.7702 51.2965 33.7589C51.3964 33.691 51.4979 33.6183 51.6018 33.5431C51.6151 33.5333 51.6285 33.5236 51.6419 33.5139C51.659 33.5015 51.6762 33.489 51.6937 33.476C51.7019 33.4698 51.7103 33.4634 51.7188 33.457C51.7406 33.4404 51.7629 33.4234 51.7848 33.4073C51.8623 33.3497 51.9391 33.2922 52.019 33.2307C52.0296 33.2224 52.0401 33.214 52.0508 33.2055C52.0698 33.1904 52.089 33.1752 52.1085 33.1603C52.2236 33.07 52.3403 32.9773 52.4601 32.879C52.4865 32.8574 52.5137 32.8351 52.5401 32.8127C52.6663 32.708 52.7942 32.6001 52.9253 32.4866C52.9437 32.4714 52.962 32.4554 52.9796 32.4394C53.0046 32.4175 53.0301 32.3955 53.0558 32.3733C53.1314 32.308 53.209 32.2409 53.2817 32.1693C55.0101 30.4708 59.1174 25.465 59.5023 24.9959C59.5187 24.9759 59.5283 24.9641 59.5307 24.9613C59.5315 24.9597 59.5339 24.9573 59.5339 24.9573C60.9893 23.2038 63.1807 22.0825 65.6319 22.0825C67.7626 22.0825 69.7462 22.9193 71.2127 24.3786L72.6609 23.3517L73.2339 29.4896L67.6315 26.9169L68.8559 26.049C67.96 25.3169 66.8323 24.9045 65.6319 24.9045Z" fill="#CCCCCC"/>
</svg>
