<svg width="160" height="80"  fill="none" xmlns="http://www.w3.org/2000/svg">
<rect width="160" height="80" rx="8" fill="#191919"/>
<path fill-rule="evenodd" clip-rule="evenodd" d="M21.3605 39.7979L38.968 35.3061L40.9444 30.5L21.3605 35.6206V39.7979ZM35.8688 42.6276L21.3605 44.6489V40.6064L37.6205 38.3156L35.8688 42.6276ZM33.1288 49.5H21.3605V45.4574H34.8357L33.1288 49.5ZM53.3865 41.909H49.5237V44.1099H56.935V47.3889H45.7506V33.5544H56.935V33.5993L55.5426 36.7884H49.5237V38.8995H54.6891L53.3865 41.909ZM97.7648 34.857C96.7317 34.0036 95.3393 33.5544 93.5875 33.5544H87.6584V47.344H91.4764V43.3913H93.3629C95.1596 43.3913 96.5521 42.9421 97.675 42.0887C98.753 41.2352 99.292 39.9776 99.292 38.4054C99.3369 36.9232 98.7979 35.7104 97.7648 34.857ZM94.8901 39.9326C94.4859 40.2471 93.9469 40.4267 93.2731 40.4267H91.4764V36.7884H93.2731C93.9918 36.7884 94.5308 36.9232 94.8901 37.2376C95.2944 37.552 95.4741 38.0012 95.4741 38.5851C95.4741 39.169 95.2944 39.6182 94.8901 39.9326ZM100.64 33.5544H104.457V44.0201H110.521L109.129 47.3889H100.64V33.5544ZM117.079 33.4645L112.138 45.143L111.195 47.344H112.498H115.238L116.226 44.8735H121.526L122.514 47.344H126.602L120.718 33.4196H117.079V33.4645ZM117.304 41.909L118.876 38.0012L120.403 41.909H117.304ZM131.498 38.5851L134.372 33.5544H138.639L133.384 42.1336V47.3889H129.566V42.1785L124.311 33.5544H128.668L131.498 38.5851ZM68.2541 33.5544L65.1099 42.3132L61.9657 33.5544H57.6985L63.3132 47.4787H66.8617L72.4763 33.5544H68.2541ZM71.7577 40.5166C71.7577 36.5638 74.9917 33.3298 78.9445 33.3298C82.8972 33.3298 86.0863 36.5189 86.1312 40.5166C86.1312 44.4693 82.8972 47.7033 78.9445 47.7033C74.9917 47.7033 71.7577 44.4693 71.7577 40.5166ZM75.1714 40.4716C75.1714 42.5378 76.8783 44.2447 78.9445 44.2447C81.0106 44.2447 82.7175 42.5378 82.7175 40.4716C82.7175 38.4055 81.0106 36.6986 78.9445 36.6986C76.8783 36.6986 75.1714 38.4055 75.1714 40.4716Z" fill="#CCCCCC"/>
</svg>
