<svg width="160" height="80" fill="none" xmlns="http://www.w3.org/2000/svg">
<rect width="160" height="80" rx="8" fill="#191919"/>
<path fill-rule="evenodd" clip-rule="evenodd" d="M25.9219 27.6999C25.9187 28.0099 25.6669 28.259 25.3569 28.259C25.0459 28.259 24.7947 28.0096 24.7911 27.6993C24.7946 27.3903 25.0463 27.14 25.3569 27.14C25.6677 27.14 25.9187 27.3899 25.9219 27.6999ZM25.9219 27.6999L25.922 27.6939V27.7059L25.9219 27.6999ZM24.7911 27.6993L24.791 27.7059V27.6939L24.7911 27.6993ZM28.1833 29.9725C28.1833 30.2853 27.931 30.5383 27.6182 30.5383C27.3062 30.5383 27.0532 30.2853 27.0532 29.9725V28.3378C27.0532 28.0242 27.3062 27.7711 27.6182 27.7711C27.931 27.7711 28.1833 28.0242 28.1833 28.3378V29.9725ZM123.885 41.7036C123.885 41.472 123.89 41.2436 123.901 41.0168C123.912 40.7908 123.929 40.5616 123.952 40.33C123.975 40.0984 124.003 39.87 124.037 39.6439C124.252 38.3777 124.828 37.558 125.766 37.1855C126.704 36.813 127.716 36.6148 128.801 36.5926H128.97H129.14C131.095 36.5926 132.463 36.9228 133.242 37.5842C134.022 38.2456 134.412 39.5994 134.412 41.6447C134.412 43.7355 134.183 45.3232 133.726 46.4088C133.268 47.4944 131.767 48.0372 129.224 48.0372C129.043 48.0372 128.856 48.034 128.665 48.0284C128.472 48.0228 128.28 48.0149 128.088 48.0029C127.23 47.9687 126.421 47.7936 125.664 47.4769C124.907 47.1609 124.392 46.5274 124.121 45.5779C124.008 45.1935 123.94 44.8035 123.917 44.408C123.894 44.0125 123.883 43.6169 123.883 43.2206V42.373C123.885 42.1589 123.885 41.936 123.885 41.7036ZM126.988 42.3228V42.3403V43.0009C126.988 43.8031 127.073 44.4136 127.242 44.8322C127.412 45.25 127.966 45.4593 128.904 45.4593C129.944 45.4593 130.603 45.293 130.88 44.9595C131.156 44.6261 131.295 43.979 131.295 43.0184V42.6109C131.295 42.4756 131.301 42.334 131.312 42.1875V41.7808V41.3741C131.312 40.6173 131.204 40.0626 130.989 39.7124C130.774 39.3622 130.26 39.1871 129.446 39.1871C128.271 39.1871 127.573 39.3455 127.352 39.6614C127.132 39.9782 127.01 40.8481 126.988 42.2727V42.3069V42.3228ZM51.456 47.952H54.4906V36.6427H51.456V40.9157H47.5228V36.6427H44.4882V47.952H47.5228V43.5102H51.456V47.952ZM137.591 39.4951H136.877V37.4506H136.204V36.8361H138.309V37.4506H137.591V39.4951ZM142 39.4952H141.299L141.351 37.4578H141.331L140.669 39.4952H140.055L139.377 37.4578H139.353L139.413 39.4952H138.711V36.8362H139.835L140.341 38.5067H140.369L140.848 36.8362H142V39.4952ZM59.3222 46.0021L58.7794 47.952H55.6262L59.0174 36.6435H63.612L67.0541 47.952H63.9685L63.3748 46.0021H59.3222ZM61.3573 38.8974L59.9669 43.8151H62.7811L61.3573 38.8974ZM74.3442 36.6427H68.1897V47.9512H74.3951C75.729 47.9512 76.6474 47.7276 77.1504 47.2811C77.6534 46.8346 77.9049 45.979 77.9049 44.7128C77.9049 43.9671 77.7712 43.3901 77.5061 42.9834C77.2411 42.5767 76.7238 42.334 75.955 42.2544V42.17C76.7795 42.0347 77.2801 41.7267 77.4552 41.246C77.6303 40.7661 77.7178 40.1978 77.7178 39.542C77.7178 38.3777 77.413 37.6065 76.8026 37.2277C76.1922 36.8488 75.3724 36.6538 74.3442 36.6427ZM73.2928 41.1863C73.2474 41.1863 73.2021 41.1807 73.1575 41.1696H71.2243V39.1521H73.6828C74.0895 39.1521 74.3632 39.2277 74.5049 39.3805C74.6458 39.5333 74.7166 39.8134 74.7166 40.2201C74.7166 40.6841 74.5893 40.9579 74.3354 41.0423C74.0815 41.1266 73.7727 41.176 73.4114 41.1863H73.2928ZM74.4206 45.3328C74.1094 45.4283 73.7162 45.4713 73.2419 45.4593H71.2243V43.2723H73.4456C73.9207 43.2723 74.2797 43.3208 74.5224 43.4163C74.7652 43.5134 74.8869 43.8262 74.8869 44.3578C74.8869 44.9118 74.7309 45.2365 74.4206 45.3328ZM81.9402 46.0021L81.3974 47.952H78.2442L81.6354 36.6435H86.2299L89.6721 47.952H86.5865L85.9928 46.0021H81.9402ZM83.9745 38.8974L82.5841 43.8151H85.3983L83.9745 38.8974ZM96.6224 47.952H101.76V36.6427H98.7585L98.8771 45.2389H98.7585L95.571 36.6427H90.4679V47.952H93.4349L93.2988 39.2547H93.4349L96.6224 47.952ZM106.287 41.1696H111.102V43.2715H106.287V45.4585H111.542V47.9512H103.252V36.6427H111.441V39.1354H106.287V41.1696ZM118.663 36.6427H112.968V47.952H116.003V44.9683H118.257C118.755 44.9683 119.091 45.1004 119.267 45.3662C119.442 45.6312 119.529 45.991 119.529 46.443V47.9512H122.615V45.8994C122.615 45.2102 122.448 44.6762 122.115 44.2974C121.781 43.9185 121.264 43.7068 120.563 43.6615V43.5596C121.614 43.3344 122.234 42.9579 122.42 42.4326C122.606 41.9066 122.699 41.2197 122.699 40.3721C122.699 38.8584 122.388 37.8604 121.766 37.3797C121.145 36.8998 120.11 36.6538 118.663 36.6427ZM119.418 42.0005C119.299 42.2615 118.963 42.3857 118.409 42.3737V42.3729H116.002V39.2539L118.257 39.2707C118.901 39.2707 119.286 39.4004 119.41 39.6606C119.534 39.9209 119.596 40.3276 119.596 40.8815C119.596 41.3678 119.536 41.741 119.418 42.0005ZM25.357 32.0394C25.6698 32.0394 25.9221 31.7863 25.9221 31.4735V29.8396C25.9221 29.526 25.6698 29.273 25.357 29.273C25.045 29.273 24.792 29.526 24.792 29.8396V31.4735C24.792 31.7863 25.0443 32.0394 25.357 32.0394ZM29.879 32.4723C30.1889 32.4723 30.4407 32.2235 30.4441 31.9136L30.4441 31.92V31.9073L30.4441 31.9136C30.4407 31.6046 30.1897 31.3541 29.879 31.3541C29.5684 31.3541 29.3166 31.6046 29.3132 31.9136L29.3132 31.9073V31.92L29.3132 31.9136C29.3166 32.2235 29.5684 32.4723 29.879 32.4723ZM33.8354 37.2292C33.8354 36.9156 34.0885 36.6633 34.4005 36.6633C34.7133 36.6633 34.9655 36.9156 34.9663 37.2308V41.7386C34.9663 41.7439 34.9655 41.7487 34.9647 41.7535C34.9639 41.7581 34.9632 41.7626 34.9632 41.7672V47.9631L26.4816 52.8601L18 47.9631V38.1691L18.0096 37.2968C18.0096 36.9841 18.2626 36.731 18.5746 36.731C18.8874 36.731 19.1397 36.9841 19.1397 37.2968V37.5109V38.1707C19.1397 38.4835 19.3936 38.7366 19.7055 38.7366C20.0175 38.7366 20.2698 38.4835 20.2698 38.1707V36.8575V35.5093C20.2698 35.1957 20.5237 34.9435 20.8357 34.9435C21.1477 34.9435 21.4007 35.1957 21.4007 35.5093V36.2049V36.4636C21.4007 36.7763 21.653 37.0294 21.9658 37.0294C22.2778 37.0294 22.5309 36.7763 22.5309 36.4636V35.5515V32.8479C22.5309 32.5352 22.784 32.2821 23.096 32.2821C23.4087 32.2821 23.661 32.5352 23.661 32.8479V34.8989V35.2109C23.661 35.5236 23.9141 35.7767 24.2261 35.7767C24.5381 35.7767 24.7912 35.5244 24.7912 35.2109V34.2471V33.5101C24.7912 33.1965 25.045 32.9442 25.357 32.9442C25.669 32.9442 25.9221 33.1965 25.9221 33.5101V33.5937V34.3036C25.9221 34.6164 26.1752 34.8694 26.4871 34.8694C26.7991 34.8694 27.0522 34.6164 27.0522 34.3036V33.6008V32.0919C27.0522 31.7783 27.3053 31.526 27.6181 31.526C27.9301 31.526 28.1831 31.7791 28.1831 32.0919V34.2534V34.6363C28.1831 34.949 28.4362 35.2013 28.7482 35.2013C29.0323 35.2013 29.3109 34.957 29.3157 34.6355V33.7337C29.3157 33.4202 29.5664 33.1679 29.8783 33.1679C30.1911 33.1679 30.4442 33.4202 30.4442 33.7337V35.5587V36.0975C30.4442 36.411 30.6973 36.6633 31.0093 36.6633C31.3205 36.6633 31.5736 36.411 31.5736 36.0975V36.0664C31.5736 35.7537 31.8274 35.5006 32.1394 35.5006C32.4514 35.5006 32.7045 35.7529 32.7045 36.0664V36.8631V37.4767C32.7045 37.7903 32.9584 38.0426 33.2703 38.0426C33.5696 38.0426 33.8155 37.8094 33.8346 37.5141L33.8354 37.4767V37.2292ZM27.8123 46.2687H30.4768H30.4776V39.9184H27.8131V42.053H25.1493V39.9184H22.4855V46.2687H25.1493V44.2408H27.8123V46.2687Z" fill="#CCCCCC"/>
</svg>
