<svg width="160" height="80"  fill="none" xmlns="http://www.w3.org/2000/svg">
<rect width="160" height="80" rx="8" fill="#191919"/>
<path d="M82.0067 25H81.1467V55H82.0067V49.2453H93.0911V45.7547H84.5867V41.6981H91.8489V38.2075H84.5867V34.3396H93.0911V30.7547H82.0067V25Z" fill="#CCCCCC"/>
<path d="M47.5111 42.0755L44.4533 37.0755L40.3444 30.8491V30.7547H37V49.2453H40.7267V37.9245L43.4978 42.2642L47.8933 49.2453H51.2378V30.7547H47.5111V42.0755Z" fill="#CCCCCC"/>
<path d="M53.34 49.2453H65.5711V45.7547H57.0667V41.6981H64.4245V38.2076H57.0667V34.3396H65.5711V30.7547H53.34V49.2453Z" fill="#CCCCCC"/>
<path d="M67.1001 34.3396H71.4001V49.2453H75.1267V34.3396H79.4267V30.7547H67.1001V34.3396Z" fill="#CCCCCC"/>
<path d="M105.513 42.0755L102.36 37.0755L98.3467 30.8491H94.9067V49.2453H98.6334V37.9245L101.404 42.3585L105.8 49.2453H109.24V30.8491H105.513V42.0755Z" fill="#CCCCCC"/>
<path d="M110.769 30.8491V34.3396H114.973V49.2453H118.7V34.3396H123V30.8491H110.769Z" fill="#CCCCCC"/>
</svg>
