<svg width="160" height="80"  fill="none" xmlns="http://www.w3.org/2000/svg">
<rect width="160" height="80" rx="8" fill="#191919"/>
<path d="M31.0622 33.5645L32.912 33.5879V43.8332H43.2567L43.2339 45.6853H31.0851L31.0622 33.5645Z" fill="#CCCCCC"/>
<path d="M56.6843 33.6114H58.8766L63.2383 39.0739L67.5771 33.6114H69.7922L64.1517 41.1605V45.6853H62.3248V41.1605L56.6843 33.6114Z" fill="#CCCCCC"/>
<path d="M69.9064 35.3463C69.9064 34.3381 70.9569 33.6114 71.9845 33.5879C74.428 33.5879 80.1142 33.541 80.5024 33.6582C81.256 33.8693 81.8954 34.5257 82.0552 35.3228C82.1466 35.6979 82.1009 36.4716 82.1009 36.4716H80.2055C80.2055 36.4716 80.2055 35.862 80.2055 35.6041C80.2055 35.44 79.9543 35.4166 79.7945 35.4166C77.2368 35.4166 74.702 35.4166 72.1444 35.4166C71.916 35.3931 71.7105 35.6041 71.7333 35.8386C71.7333 36.6592 71.7333 37.4563 71.7333 38.2768C71.7105 38.5113 71.916 38.7223 72.1444 38.7223C74.7934 38.7223 77.4652 38.7223 80.1142 38.7223C81.1875 38.7926 82.1009 39.7538 82.1009 40.8557C82.1009 41.7466 82.1009 42.6375 82.1009 43.5284C82.0781 44.3724 81.5072 45.1695 80.7536 45.4743C80.3197 45.6619 74.5193 45.6619 72.053 45.6619C71.2081 45.6384 70.386 45.1226 70.0435 44.3021C69.8379 43.8097 69.8608 42.7313 69.8608 42.7313H71.7105C71.7105 42.7313 71.5963 43.5518 71.9389 43.8097C74.5878 43.8097 77.214 43.8097 79.863 43.8097C80.0457 43.8097 80.2512 43.6456 80.2284 43.4581C80.2284 42.7547 80.2284 42.0514 80.2284 41.3481C80.2284 41.0902 80.274 40.8088 80.1142 40.5978C79.9543 40.5509 79.7945 40.5275 79.6118 40.5275C77.077 40.5275 74.565 40.5275 72.0302 40.5275C71.0254 40.5275 69.9064 39.9179 69.9064 38.7692C69.9293 38.2768 69.9064 35.3463 69.9064 35.3463Z" fill="#CCCCCC"/>
<path d="M96.5562 33.5879H98.7941L106.901 43.2002V33.5879L108.773 33.6114L108.728 45.6853H106.604L98.4059 36.0496L98.3831 45.6853H96.5562V33.5879Z" fill="#CCCCCC"/>
<path d="M30.1945 35.6979C30.1716 34.5491 29.1212 33.6114 28.0479 33.6114H18V45.6619H19.8041L19.8497 41.3012L27.9565 41.3246C29.1212 41.3246 30.1945 40.4103 30.1945 39.2146V35.6979ZM28.3448 39.1677C28.3448 39.3787 28.1621 39.5194 27.9565 39.5194C25.3304 39.5194 20.1009 39.5194 20.1009 39.5194C19.9639 39.4725 19.8269 39.3553 19.8497 39.1677V35.7448C19.8497 35.5104 20.1009 35.4166 20.3064 35.4166C20.3064 35.4166 25.4217 35.4166 27.9794 35.4166C28.2077 35.4166 28.3448 35.6041 28.3448 35.8151C28.3448 36.9639 28.3448 38.0658 28.3448 39.1677Z" fill="#CCCCCC"/>
<path d="M56.4788 35.7683C56.4788 34.596 55.6796 33.5879 54.9031 33.5879H46.3625C45.2663 33.6114 44.2844 34.5726 44.2844 35.6979C44.2844 39.0271 44.2844 45.6619 44.2844 45.6619H46.1113V41.4418H54.6291V44.7475L54.6748 45.6619H56.456L56.4788 43.294C56.4788 43.294 56.456 38.2768 56.4788 35.7683ZM54.6291 39.6132H46.1113C46.1113 39.6132 46.1113 37.1046 46.1113 35.8386C46.0656 35.6042 46.2711 35.3931 46.4995 35.4166C49.0799 35.4166 51.6604 35.4166 54.2409 35.4166C54.4693 35.3931 54.6291 35.6276 54.6063 35.8386C54.6291 37.1046 54.6291 39.6132 54.6291 39.6132Z" fill="#CCCCCC"/>
<path d="M95.3916 43.0595C95.3916 41.5122 95.3687 36.3778 95.3687 35.3463C95.3687 34.385 94.2726 33.6114 93.2906 33.5879C90.87 33.5879 85.8232 33.5879 85.3208 33.5879C84.3846 33.5879 83.1742 34.7601 83.1742 35.5807C83.1742 36.7295 83.1742 42.028 83.1742 43.5284C83.1971 44.6772 84.2247 45.6384 85.3208 45.6619C87.947 45.6619 90.5731 45.6619 93.1993 45.6619C94.0899 45.6619 94.9577 45.0523 95.2545 44.1849C95.4144 43.8332 95.3916 43.4346 95.3916 43.0595ZM93.3363 43.8332C90.8015 43.8332 87.9013 43.8332 85.2752 43.8332C85.1381 43.8332 85.024 43.6456 85.0468 43.4815C85.0468 40.8792 85.0468 35.651 85.0468 35.651C85.0925 35.5104 85.0468 35.3228 85.5264 35.3228H93.1308C93.3591 35.3228 93.5418 35.4166 93.5418 35.651C93.5418 38.1596 93.5418 40.973 93.5418 43.4815C93.5647 43.6456 93.4962 43.8332 93.3363 43.8332Z" fill="#CCCCCC"/>
<path d="M114.414 27L123.685 31.3372L114.414 35.6979V27Z" fill="#CCCCCC"/>
<path d="M123.685 31.3372L132.934 35.6745L123.685 40.0117L123.685 31.3372Z" fill="#CCCCCC"/>
<path d="M114.414 35.6979L123.685 40.0117L114.414 44.3255V35.6979Z" fill="#CCCCCC"/>
<path d="M142 39.9648L132.934 44.349L132.934 35.6745L142 39.9648Z" fill="#CCCCCC"/>
<path d="M132.934 44.349L123.685 48.6862V40.0117L132.934 44.349Z" fill="#CCCCCC"/>
<path d="M123.685 48.6862L114.414 53V44.3255L123.685 48.6862Z" fill="#CCCCCC"/>
</svg>
