<svg width="160" height="80"  fill="none" xmlns="http://www.w3.org/2000/svg">
<rect width="160" height="80" rx="8" fill="#191919"/>
<path d="M36.7428 40.88L35.7026 40.86H33.5V48.72H34.8053V45.68L36.6612 45.66C37.8849 45.64 39.0066 44.86 39.0474 43.26C39.0678 41.98 38.1908 40.94 36.7428 40.88ZM37.273 44.32C37.0079 44.52 36.6408 44.62 36.3145 44.62C36.0697 44.62 34.8053 44.62 34.8053 44.62V41.9C34.8053 41.88 36.4776 41.92 36.6 41.94C36.9059 41.98 37.2322 42.12 37.4362 42.36C37.8033 42.74 37.7829 43.44 37.5993 43.9C37.5178 44.08 37.4158 44.22 37.273 44.32Z" fill="#CCCCCC"/>
<path d="M103.434 40.88L102.393 40.86H100.191V48.72H101.496V45.68L103.352 45.66C104.576 45.64 105.697 44.86 105.738 43.26C105.759 41.98 104.882 40.94 103.434 40.88ZM103.964 44.32C103.699 44.52 103.332 44.62 103.005 44.62C102.761 44.62 101.496 44.62 101.496 44.62V41.9C101.496 41.88 103.168 41.92 103.291 41.94C103.597 41.98 103.923 42.12 104.127 42.36C104.494 42.74 104.474 43.44 104.29 43.9C104.209 44.08 104.107 44.22 103.964 44.32Z" fill="#CCCCCC"/>
<path d="M43.7382 45.54C44.8599 45.5 45.8184 44.48 45.798 43.2C45.7776 41.64 44.4724 40.9 43.3507 40.86L40.1487 40.84V48.72H41.4539V45.6H42.3921L44.3704 48.74H45.8592L43.7382 45.54ZM42.9836 44.68H41.4539V41.94C41.4743 41.94 42.9632 41.94 43.0651 41.96C43.1671 41.96 43.4322 41.96 43.677 42.06C43.9217 42.16 44.3908 42.44 44.4316 43.1C44.4724 43.76 44.3092 44.22 43.8605 44.46C43.4526 44.7 42.9836 44.68 42.9836 44.68Z" fill="#CCCCCC"/>
<path d="M50.7743 40.98H49.2651L46.3283 48.74H47.7151L48.327 47.04H51.6921L52.3243 48.74H53.6908L50.7743 40.98ZM48.7145 46.02L50.0197 42.38L51.3658 46.02H48.7145Z" fill="#CCCCCC"/>
<path d="M76.227 40.98H74.7178L71.7809 48.74H73.1678L73.7796 47.04H77.1651L77.7974 48.74H79.1638L76.227 40.98ZM74.1671 46.02L75.4724 42.38L76.8184 46.02H74.1671Z" fill="#CCCCCC"/>
<path d="M115.691 40.98H114.182L111.245 48.74H112.632L113.243 47.04H116.609L117.241 48.74H118.607L115.691 40.98ZM113.631 46.02L114.936 42.38L116.282 46.02H113.631Z" fill="#CCCCCC"/>
<path d="M60.5638 44.46H57.6678V45.42L60.625 45.44C60.4007 46.74 59.3197 47.68 57.9941 47.68C56.4849 47.68 55.302 46.42 55.302 44.84C55.302 43.26 56.3217 41.98 57.9941 41.96C58.8914 41.96 59.7276 42.44 60.1967 43.36H61.5632C61.0941 41.68 59.7684 40.76 57.8717 40.76C55.4651 40.78 53.9559 42.58 53.9559 44.82C53.9559 47.06 55.6895 48.82 57.8717 48.82C59.748 48.82 61.4612 47.5 61.7263 45.68C61.7875 45.16 61.7263 44.72 61.7263 44.44C61.7059 44.46 60.5638 44.44 60.5638 44.46Z" fill="#CCCCCC"/>
<path d="M63.827 48.74H62.5217V40.98H64.1125L66.723 47.12L69.2724 40.98H70.8428V48.74H69.5375V42.94L67.2533 48.76H66.1316L63.827 42.96V48.74Z" fill="#CCCCCC"/>
<path d="M84.7316 40.86H78.9803V41.88H81.2033V48.74H82.5086V41.88H84.7316V40.86Z" fill="#CCCCCC"/>
<path d="M86.7099 40.86H85.425V48.72H86.7099V40.86Z" fill="#CCCCCC"/>
<path d="M93.9908 46.08C93.5829 47.02 92.7263 47.62 91.6454 47.62C90.1362 47.62 89.0553 46.42 89.0553 44.84C89.0553 43.26 90.075 41.98 91.7474 41.96C92.6447 41.96 93.5217 42.56 93.9704 43.48L95.3572 43.5C94.8882 41.82 93.5217 40.76 91.625 40.78C89.2184 40.8 87.7092 42.6 87.7092 44.84C87.7092 47.08 89.4428 48.84 91.625 48.84C93.3789 48.84 94.9901 47.7 95.398 46.06L93.9908 46.08Z" fill="#CCCCCC"/>
<path d="M107.92 47.74V40.84H106.615V48.74H110.694V47.74H107.92Z" fill="#CCCCCC"/>
<path d="M117.159 40.86H118.689L120.504 44.46L122.36 40.86H123.828L121.177 45.88V48.74H119.851V45.88L117.159 40.86Z" fill="#CCCCCC"/>
<path d="M111.591 59C103.372 59 96.6829 52.42 96.6829 44.34C96.6829 36.26 103.372 29.68 111.591 29.68C119.811 29.68 126.5 36.26 126.5 44.34C126.5 52.42 119.811 59 111.591 59ZM111.591 31.48C104.392 31.48 98.5184 37.24 98.5184 44.34C98.5184 51.44 104.372 57.2 111.591 57.2C118.791 57.2 124.664 51.44 124.664 44.34C124.664 37.24 118.791 31.48 111.591 31.48Z" fill="#CCCCCC"/>
<path d="M118.577 37.8311C119.206 36.4253 118.053 34.5692 116 33.6853C113.948 32.8015 111.774 33.2246 111.145 34.6303C110.515 36.0361 111.668 37.8922 113.721 38.7761C115.773 39.6599 117.947 39.2368 118.577 37.8311Z" fill="#CCCCCC"/>
<path d="M111.061 19.48C111.061 19.48 109.103 23.44 110.572 28.1C110.572 28.1 106.758 28.04 103.311 30.3C103.311 30.3 101.741 25.5 97.9066 23.5C97.9066 23.5 101.414 23.14 104.045 27.18C104.045 27.18 102.618 21.26 103.046 17C103.046 17 105.799 19.9 108.104 25.94C108.145 25.92 107.716 22.24 111.061 19.48Z" fill="#CCCCCC"/>
</svg>
