<svg width="160" height="80"  fill="none" xmlns="http://www.w3.org/2000/svg">
<rect width="160" height="80" rx="8" fill="#191919"/>
<path d="M39.3281 51.226C39.3281 52.2662 39.0617 52.9597 38.4401 53.4799C38.0849 53.8266 37.5521 53.9133 36.8417 53.9133C35.9536 53.9133 35.332 53.5666 34.7992 52.9597C34.3552 52.3529 34.1776 51.7461 34.1776 51.0526C34.1776 50.1857 34.3552 49.4923 34.888 48.8854C35.1544 48.6254 35.4208 48.3653 35.6872 48.1919C36.0424 48.0186 36.3976 47.9319 36.8417 47.9319C37.2857 47.9319 37.6409 48.0186 38.0849 48.1053C38.4401 48.1919 38.7065 48.3653 38.8841 48.6254C38.9729 48.7121 38.9729 48.7988 38.9729 48.8854C38.9729 48.9721 38.9729 49.0588 38.8841 49.1455C38.7953 49.2322 38.7065 49.2322 38.6177 49.2322C38.5289 49.2322 38.4401 49.2322 38.3513 49.1455C38.0849 48.9721 37.9073 48.7988 37.7297 48.7121C37.4633 48.6254 37.2857 48.5387 36.9305 48.5387C36.3088 48.5387 35.776 48.7988 35.4208 49.3189C35.1544 49.7523 34.9768 50.2724 34.9768 50.8792C34.9768 51.7461 35.2432 52.3529 35.6872 52.8731C35.9536 53.1331 36.3088 53.3065 36.7528 53.3065C37.0193 53.3065 37.3745 53.2198 37.6409 53.1331C38.2625 52.8731 38.6177 52.2662 38.6177 51.4861V51.226H37.5521C37.3745 51.226 37.1969 51.1393 37.1969 50.8792C37.1969 50.6192 37.2857 50.5325 37.5521 50.5325H38.8841C39.1505 50.5325 39.3281 50.7926 39.3281 51.1393V51.226Z" fill="#CCCCCC"/>
<path d="M125.911 51.226C125.911 52.2662 125.645 52.9597 125.023 53.4799C124.668 53.8266 124.135 53.9133 123.424 53.9133C122.536 53.9133 121.915 53.5666 121.382 52.9597C120.938 52.3529 120.76 51.7461 120.76 51.0526C120.76 50.1857 120.938 49.4923 121.471 48.8854C121.737 48.6254 122.004 48.3653 122.27 48.1919C122.625 48.0186 122.98 47.9319 123.424 47.9319C123.869 47.9319 124.224 48.0186 124.668 48.1053C125.023 48.1919 125.289 48.3653 125.467 48.6254C125.556 48.7121 125.556 48.7988 125.556 48.8854C125.556 48.9721 125.556 49.0588 125.467 49.1455C125.378 49.2322 125.289 49.2322 125.201 49.2322C125.112 49.2322 125.023 49.2322 124.934 49.1455C124.668 48.9721 124.49 48.7988 124.313 48.7121C124.046 48.6254 123.869 48.5387 123.513 48.5387C122.892 48.5387 122.359 48.7988 122.004 49.3189C121.737 49.7523 121.56 50.2724 121.56 50.8792C121.56 51.7461 121.826 52.3529 122.27 52.8731C122.536 53.1331 122.892 53.3065 123.336 53.3065C123.602 53.3065 123.957 53.2198 124.224 53.1331C124.845 52.8731 125.201 52.2662 125.201 51.4861V51.226H124.135C123.957 51.226 123.78 51.1393 123.78 50.8792C123.78 50.6192 123.869 50.5325 124.135 50.5325H125.467C125.822 50.5325 126 50.7059 126 51.0526V51.226H125.911Z" fill="#CCCCCC"/>
<path d="M76.0038 53.4799C76.0038 53.8266 75.915 54 75.6486 54C75.471 54 75.2934 53.9133 75.2934 53.6532L74.5829 48.8854L73.1621 53.6532C73.0733 53.8266 72.9845 53.9133 72.8069 53.9133C72.6293 53.9133 72.4517 53.8266 72.4517 53.6532L71.0308 48.8854L70.3204 53.6532C70.3204 53.9133 70.1428 54 69.8764 54C69.6988 54 69.5212 53.8266 69.5212 53.5666C69.5212 53.4799 69.5212 53.4799 69.5212 53.3932L70.4092 48.452C70.4092 48.2786 70.498 48.1919 70.5868 48.1053C70.6756 48.0186 70.8532 47.9319 70.942 47.9319C71.1196 47.9319 71.2084 47.9319 71.2972 48.0186C71.386 48.1053 71.4748 48.1919 71.4748 48.2786L72.7181 52.5263L73.9613 48.1919C73.9613 48.1053 74.0501 48.0186 74.1389 47.9319C74.2277 47.8452 74.3165 47.8452 74.4941 47.8452C74.6717 47.8452 74.7605 47.8452 74.8493 47.9319C74.9381 48.0186 75.027 48.1053 75.027 48.2786L76.0038 53.4799Z" fill="#CCCCCC"/>
<path d="M89.8569 53.5666C89.8569 53.8266 89.7681 54 89.5017 54C89.2353 54 89.1465 53.9133 89.1465 53.6533V48.452C89.1465 48.1919 89.2353 48.1053 89.5017 48.1053C89.7681 48.1053 89.8569 48.1919 89.8569 48.452V53.5666Z" fill="#CCCCCC"/>
<path d="M107.706 53.5666C107.706 53.8266 107.618 53.9133 107.351 53.9133C107.174 53.9133 107.085 53.8266 106.907 53.6532L103.71 49.2322V53.4799C103.71 53.7399 103.621 53.8266 103.355 53.8266C103.089 53.8266 103 53.7399 103 53.4799V48.2786C103 48.0186 103.089 47.9319 103.266 47.9319C103.444 47.9319 103.533 48.0186 103.71 48.1919L106.818 52.613V48.3653C106.818 48.2786 106.818 48.1919 106.907 48.1053C106.996 48.0186 107.085 48.0186 107.174 48.0186C107.44 48.0186 107.529 48.1053 107.529 48.3653V53.5666H107.706Z" fill="#CCCCCC"/>
<path d="M56.911 53.6533C56.911 53.8266 56.8222 53.9133 56.5558 53.9133C56.467 53.9133 56.3782 53.9133 56.2894 53.8266C56.2006 53.8266 56.2006 53.8266 56.2006 53.7399L55.8454 52.6997H53.0925L52.5597 53.7399C52.4709 53.9133 52.3821 54 52.2045 54C52.0269 54 51.8493 53.9133 51.8493 53.7399V53.5666L53.8029 48.5387C53.8917 48.3653 53.8917 48.2786 53.9805 48.192C54.0693 48.1053 54.1581 48.1053 54.2469 48.1053C54.3357 48.1053 54.4245 48.1053 54.6021 48.192C54.691 48.2786 54.7798 48.3653 54.7798 48.5387L56.7334 53.5666C56.911 53.5666 56.911 53.6533 56.911 53.6533ZM55.579 52.0062L54.4245 48.7988L53.1813 52.0062H55.579Z" fill="#CCCCCC"/>
<path d="M111.081 30.6811C112.405 30.6811 113.479 29.6332 113.479 28.3406C113.479 27.0479 112.405 26 111.081 26C109.757 26 108.683 27.0479 108.683 28.3406C108.683 29.6332 109.757 30.6811 111.081 30.6811Z" fill="#CCCCCC"/>
<path d="M126 28.3406C126 29.6409 124.934 30.6811 123.602 30.6811C122.27 30.6811 121.205 29.6409 121.205 28.3406C121.205 27.0402 122.27 26 123.602 26C124.934 26 126 27.0402 126 28.3406Z" fill="#CCCCCC"/>
<path d="M111.081 42.1238C112.405 42.1238 113.479 41.0759 113.479 39.7833C113.479 38.4906 112.405 37.4427 111.081 37.4427C109.757 37.4427 108.683 38.4906 108.683 39.7833C108.683 41.0759 109.757 42.1238 111.081 42.1238Z" fill="#CCCCCC"/>
<path d="M126 39.7833C126 41.0836 124.934 42.1238 123.602 42.1238C122.27 42.1238 121.205 41.0836 121.205 39.7833C121.205 38.483 122.27 37.4427 123.602 37.4427C124.934 37.4427 126 38.483 126 39.7833Z" fill="#CCCCCC"/>
<path d="M119.784 34.0619C119.784 35.3622 118.718 36.4025 117.386 36.4025C116.054 36.4025 114.988 35.3622 114.988 34.0619C114.988 32.7616 116.054 31.7214 117.386 31.7214C118.718 31.7214 119.784 32.7616 119.784 34.0619Z" fill="#CCCCCC"/>
<path d="M104.687 41.6037L98.0269 26.2601C97.9381 26.0867 97.8493 26 97.6717 26H94.83C94.6524 26 94.5636 26.0867 94.4748 26.2601L87.7258 41.6037V41.6904C87.7258 41.8638 87.8146 41.9505 87.9922 41.9505H91.0115C91.1891 41.9505 91.2779 41.8638 91.3667 41.6904L92.7875 38.1362H99.8918L101.313 41.6904C101.401 41.8638 101.49 41.9505 101.668 41.9505H104.687C104.865 41.9505 104.954 41.8638 104.954 41.6904C104.776 41.6904 104.776 41.6037 104.687 41.6037ZM93.7644 35.3622L96.2508 29.2074L98.7373 35.3622H93.7644Z" fill="#CCCCCC"/>
<path d="M57.3551 30.9412C57.5327 30.3344 57.7991 30.0743 57.7991 30.0743C57.7991 30.0743 58.1544 29.4675 58.9536 29.1207C59.7528 28.774 60.4632 28.774 60.4632 28.774H66.413C66.5906 28.774 66.7682 28.6006 66.7682 28.4272V26.3467C66.7682 26.1734 66.5906 26 66.413 26H59.8416C56.2007 26 53.2702 29.1207 53.2702 32.935V35.1889C53.2702 39.0031 56.2007 42.1238 59.8416 42.1238H66.413C66.5906 42.1238 66.7682 41.9505 66.7682 41.7771V39.6099C66.7682 39.4365 66.5906 39.2632 66.413 39.2632H60.4632C60.4632 39.2632 59.664 39.2632 58.9536 38.9164C58.1544 38.5697 57.7991 37.9628 57.7991 37.9628C57.7991 37.9628 57.5327 37.6161 57.3551 37.096C57.1775 36.4892 57.1775 35.709 57.1775 35.709V35.3622H66.413C66.5906 35.3622 66.7682 35.1889 66.7682 35.0155V32.8483C66.7682 32.6749 66.5906 32.5015 66.413 32.5015H57.1775V32.3282C57.1775 32.3282 57.2663 31.548 57.3551 30.9412Z" fill="#CCCCCC"/>
<path d="M77.7799 41.9505H83.1969C83.3745 41.9505 83.4633 41.7771 83.4633 41.6037V39.4365C83.4633 39.2632 83.3745 39.0898 83.1969 39.0898H78.3127C78.3127 39.0898 77.6911 39.0898 77.0695 38.743C76.4479 38.3963 76.0927 37.7895 76.0927 37.7895C76.0927 37.7895 75.7375 37.4427 75.7375 36.8359C75.7375 36.3158 75.7375 35.6223 75.7375 35.6223V26.2601C75.7375 26.0867 75.6487 26 75.4711 26H72.6294C72.4518 26 72.2741 26.1734 72.2741 26.3467C72.2741 26.3467 72.2741 26.3467 72.2741 26.4334V36.9226C72.3629 39.6966 74.7606 41.9505 77.7799 41.9505Z" fill="#CCCCCC"/>
<path d="M48.6525 41.6037L44.834 35.3622C46.7876 34.9288 48.1197 33.6285 48.1197 30.7678C48.2085 26.9536 45.5444 26.0867 42.2587 26H34.3552C34.1776 26 34 26.1734 34 26.3467V41.6904C34 41.8638 34.1776 42.0372 34.3552 42.0372H37.1969C37.3745 42.0372 37.5521 41.8638 37.5521 41.6904V35.709H41.5482L45.1004 41.7771C45.1892 41.9505 45.3668 42.0372 45.5444 42.0372H48.5637C48.7413 42.0372 48.8301 41.9505 48.8301 41.7771C48.6525 41.6904 48.6525 41.6037 48.6525 41.6037ZM42.3475 32.8483L41.4594 32.935H37.4633V28.8607H42.3475C44.2123 28.8607 44.7452 29.7276 44.7452 30.8545C44.6564 31.9814 44.1235 32.8483 42.3475 32.8483Z" fill="#CCCCCC"/>
</svg>
