<svg xmlns="http://www.w3.org/2000/svg" width="160" height="80" fill="none"><rect width="160" height="80" fill="#191919" rx="8"/><path fill="#CCC" d="M36.21 33.52a26.091 26.091 0 0 0-9.347-3.252A26.134 26.134 0 0 0 25 40c0 3.436.665 6.723 1.863 9.732a26.05 26.05 0 0 0 9.346-3.252A26.14 26.14 0 0 0 43.692 40c-2-2.546-4.51-4.76-7.483-6.48ZM37.343 40a11.196 11.196 0 0 1-3.246 2.807 11.176 11.176 0 0 1-4.047 1.406 11.335 11.335 0 0 1-.807-4.219c0-1.49.285-2.914.807-4.22 1.389.203 2.76.666 4.047 1.407A11.493 11.493 0 0 1 37.343 40Zm19.303 5.655H53.78l-3.697-5.329h1.193c1.632 0 2.457-.753 2.457-2.005 0-1.264-.825-2.006-2.457-2.006h-2.184v9.34h-2.67V34.143h4.997c3.085 0 5.014 1.596 5.014 4.178 0 1.726-.873 2.99-2.374 3.631l2.587 3.703Zm6.558.196c3.281 0 5.227-1.875 5.227-5.264V34.15h-2.64v6.35c0 2.19-.938 3.091-2.575 3.091-1.615 0-2.576-.902-2.576-3.092V34.15h-2.67v6.444c.006 3.389 1.952 5.258 5.234 5.258Zm15.238-6.177c.938-.493 1.531-1.383 1.531-2.534 0-1.792-1.483-2.991-4.367-2.991h-5.638v11.512h5.97c3.032 0 4.617-1.151 4.617-3.14 0-1.453-.825-2.438-2.113-2.847Zm-3.163-3.52c1.306 0 2.012.446 2.012 1.348 0 .902-.712 1.364-2.012 1.364h-2.652v-2.711h2.652Zm.463 7.495h-3.115v-2.842h3.115c1.383 0 2.13.463 2.13 1.43-.005.985-.747 1.412-2.13 1.412Zm16.188-9.5h-2.622l-3.086 5.115-3.086-5.115h-2.83l4.468 7.4v4.112h2.67v-4.077l4.486-7.435Zm6.534 0h-4.997v11.512h2.67v-9.346h2.178c1.632 0 2.457.742 2.457 2.006 0 1.252-.825 1.988-2.457 1.988h-1.192l-.006 2.171h1.347c3.086 0 5.014-1.596 5.014-4.16 0-2.58-1.928-4.171-5.014-4.171Zm6.545 11.506h6.807l.973-2.172h-5.104V34.15h-2.67v11.506h-.006Zm18.497 0h2.801l-5.163-11.512h-2.641l-5.145 11.512h2.736l1.021-2.468h5.358l1.033 2.468Zm-5.525-4.486 1.828-4.41 1.827 4.41h-3.655ZM135 34.149h-2.623l-3.086 5.115-3.085-5.115h-2.837l4.469 7.4v4.112h2.67v-4.077L135 34.15Z"/></svg>