<svg width="160" height="80" fill="none" xmlns="http://www.w3.org/2000/svg">
<rect width="160" height="80" rx="8" fill="#191919"/>
<path fill-rule="evenodd" clip-rule="evenodd" d="M40.1219 38.1591C40.1994 38.4632 40.3051 38.9759 40.3126 39.3331L40.3121 39.332C40.2777 39.1014 40.2373 38.9665 40.2117 38.8807L40.2005 38.8429C40.2317 39.2198 40.2294 39.4233 40.2242 39.5331C40.2229 39.5735 40.2141 39.5031 40.1995 39.386C40.1744 39.185 40.1322 38.8466 40.0814 38.6961C40.0884 38.714 40.0866 38.806 40.0629 38.7545C40.0553 38.738 40.0445 38.6683 40.0294 38.5716C39.9976 38.3679 39.9471 38.044 39.8687 37.8441C39.8681 37.9371 39.8597 38.0285 39.8514 38.1195V38.1196C39.8367 38.2798 39.8222 38.4388 39.8502 38.6025C39.7475 38.4694 39.702 38.3155 39.6558 38.1593C39.6351 38.0896 39.6144 38.0195 39.5884 37.9505C39.5815 37.9664 39.5756 37.9806 39.5688 37.9973L39.5688 37.9973L39.5686 37.9977C39.5628 38.0118 39.5563 38.0276 39.5479 38.0476C39.5364 37.9652 39.5254 37.8942 39.5148 37.8257L39.5022 37.7435C39.4974 37.7444 39.4926 37.7449 39.4875 37.7453C39.4828 37.7457 39.478 37.7462 39.4728 37.747L39.4786 37.8044L39.4786 37.8044C39.5479 38.4812 39.6171 39.1581 39.5514 39.8383C39.5381 39.8401 39.5254 39.8418 39.5126 39.8418C39.4914 39.6827 39.4718 39.5214 39.4523 39.3606L39.4523 39.3603L39.4502 39.3435C39.3758 39.5326 39.374 39.7451 39.3721 39.9575C39.3712 40.0685 39.3702 40.1794 39.3589 40.2869V40.0834H39.3352C39.325 40.1644 39.3144 40.2457 39.3038 40.3272C39.2915 40.4209 39.2793 40.5149 39.2676 40.6088C39.2646 40.6088 39.2612 40.6093 39.2578 40.6097C39.2547 40.6102 39.2516 40.6106 39.2491 40.6106L39.2535 40.5341C39.2852 39.9894 39.3171 39.4422 39.2508 38.8944C39.1735 38.7122 39.1506 38.5173 39.1273 38.3185V38.3185C39.107 38.1457 39.0864 37.9701 39.0294 37.7973L39.0471 37.8281L39.0471 37.8282C39.0584 37.848 39.0663 37.862 39.0751 37.8759C39.1765 37.7014 39.0933 37.4234 39.0292 37.2094L39.0292 37.2094C38.9984 37.1065 38.972 37.0184 38.9728 36.9638C38.9751 36.7955 38.8814 36.7297 38.9363 36.9713C38.9913 37.2129 39.0699 37.5661 39.0242 37.4528C39.0181 37.4382 39.005 37.3973 38.9851 37.3355L38.9851 37.3354C38.8479 36.9087 38.3918 35.4902 37.7566 34.9383C37.7871 34.9937 37.8175 35.0502 37.8477 35.1064L37.8941 35.1927L37.8874 35.1971C37.8825 35.2002 37.8779 35.2031 37.8739 35.2071C37.766 35.0883 37.6645 34.9636 37.5629 34.8388C37.3577 34.5867 37.1522 34.3342 36.8924 34.1285C37.0482 34.3455 37.2115 34.5608 37.3754 34.7771C38.0169 35.6231 38.6692 36.4834 38.9288 37.5146C38.6173 36.6574 38.0918 35.9008 37.5387 35.1811L37.5319 35.1864C37.5268 35.1904 37.5219 35.1943 37.5167 35.1979C37.6218 35.3493 37.7646 35.5544 37.8901 35.7346C38.0228 35.925 38.1361 36.0878 38.1652 36.1302C38.2219 36.2129 38.1872 36.2112 38.1433 36.147C38.0994 36.0828 37.8941 35.7898 37.7606 35.636C37.6863 35.5504 37.7526 35.686 37.8083 35.8L37.8083 35.8C37.8527 35.8909 37.8904 35.968 37.845 35.9088C37.8132 35.8673 37.7464 35.7962 37.6631 35.7075C37.4787 35.5111 37.2137 35.2288 37.0687 34.9915C37.0612 34.996 37.0534 34.9996 37.0453 35.0034C37.0398 35.006 37.0341 35.0087 37.0283 35.0117C37.1385 35.2363 37.2855 35.4437 37.4335 35.6525C37.5872 35.8694 37.742 36.0878 37.8577 36.3285L37.7107 36.1454C37.5141 35.9006 37.3176 35.6559 37.1196 35.4112C37.1172 35.4121 37.1149 35.4133 37.1126 35.4144L37.1126 35.4144C37.1094 35.4161 37.1062 35.4177 37.1028 35.4187C37.1261 35.4755 37.1487 35.5322 37.1728 35.5925C37.1906 35.6372 37.2092 35.6838 37.2294 35.7337L37.1821 35.6596L37.182 35.6595L37.1817 35.659C36.99 35.3587 36.8074 35.0727 36.6248 34.7886C36.6547 34.9176 36.7539 35.0833 36.8339 35.217L36.8339 35.217C36.9052 35.3362 36.9613 35.43 36.9398 35.4499L36.9324 35.4566C36.922 35.4662 36.9153 35.4724 36.9078 35.4736C36.8939 35.4759 36.8773 35.4611 36.8303 35.4193C36.8117 35.4028 36.7882 35.3819 36.7583 35.3562C36.8249 35.4957 36.8951 35.6342 36.9651 35.7725L36.9651 35.7725L36.9651 35.7725L36.9651 35.7725L36.9651 35.7725L36.9651 35.7725L36.9651 35.7726L36.9651 35.7726L36.9651 35.7726L36.9652 35.7726L36.9652 35.7726L36.9652 35.7726L36.9652 35.7726L36.9652 35.7726L36.9652 35.7727L36.9652 35.7727L36.9652 35.7727L36.9652 35.7727L36.9652 35.7727L36.9652 35.7727L36.9652 35.7727L36.9652 35.7727L36.9652 35.7728C37.1474 36.1324 37.329 36.491 37.4467 36.8638C37.4508 36.8638 37.7196 37.4921 37.7363 37.5505C37.7294 37.5412 37.7144 37.5123 37.6907 37.4609L37.6778 37.4338C37.4843 37.0251 37.1746 36.3711 36.8681 35.873C36.5184 35.3071 36.0994 34.7869 35.5496 34.3857C35.596 34.5115 35.8241 34.7831 36.0939 35.1044C36.4094 35.4801 36.7819 35.9237 36.9872 36.2811C36.8587 36.1269 36.738 35.9837 36.5989 35.8187L36.5987 35.8183L36.4762 35.673C36.5386 35.7851 36.5914 35.8856 36.6392 35.9766C36.7514 36.19 36.8363 36.3517 36.9543 36.4915C37.0774 36.6383 37.1745 36.8817 37.1138 36.9256C37.0537 36.9695 36.8797 36.6638 36.8485 36.5684C36.7733 36.3429 36.5797 36.0372 36.4861 35.9088C34.8028 33.6013 32.045 31.7002 29.1421 31.8505C29.1143 31.852 29.079 31.8528 29.0383 31.8536C28.8305 31.8582 28.4792 31.8659 28.2265 31.9915C28.5051 31.9256 29.7907 31.8158 30.7941 32.1747C29.86 31.9956 28.8398 31.9493 27.8947 32.3268C27.8285 32.353 27.7741 32.4081 27.7242 32.4587C27.6597 32.5242 27.6027 32.582 27.5375 32.5591C27.4115 32.5152 27.4057 32.3909 27.4699 32.3522C26.7774 32.7609 25.8635 33.3632 25.241 34.0684C25.3863 34.0598 25.4827 33.9753 25.5829 33.8876C25.6505 33.8284 25.7198 33.7677 25.8069 33.7279C25.7259 33.8027 25.6513 33.8705 25.5793 33.9359L25.4699 34.0354L25.4763 34.0397C25.4825 34.0439 25.4884 34.0479 25.4953 34.0522C25.4056 34.2508 25.2461 34.4124 25.0848 34.576C24.8907 34.7728 24.6938 34.9724 24.6126 35.2424C24.7085 35.1591 24.803 35.0754 24.8982 34.9912L24.9953 34.9054C24.9985 34.9073 25.0017 34.9099 25.0048 34.9125L25.0049 34.9125L25.0049 34.9125L25.0049 34.9125L25.0049 34.9125L25.0049 34.9125L25.0049 34.9125C25.0073 34.9146 25.0098 34.9166 25.0121 34.9181C24.2866 35.621 23.7814 36.4713 23.4369 37.3886L23.4358 37.3927L23.4577 37.3973L23.2861 38.3019C23.2733 38.2967 23.2606 38.2915 23.2479 38.2869V38.2863L23.2751 38.1551L23.2751 38.155C23.326 37.9096 23.3769 37.6645 23.4274 37.419C23.0247 38.4996 22.845 39.6733 22.7884 40.8192C22.7115 41.0759 22.8456 42.0794 23.056 42.3961C23.0537 42.3644 23.044 42.3223 23.0341 42.279C23.0112 42.1797 22.9868 42.0737 23.0468 42.0701C23.0834 42.0701 23.1547 42.3125 23.2517 42.6419C23.3874 43.1032 23.5735 43.7353 23.7849 44.1123C23.7887 44.0526 23.7503 43.9247 23.7015 43.7622C23.6832 43.7013 23.6634 43.6355 23.6439 43.5666C23.715 43.7811 23.8687 43.9915 23.9751 44.0649C23.9669 44.0453 23.9541 44.016 23.9376 43.9783L23.9376 43.9783C23.7983 43.6601 23.3999 42.7502 23.3999 42.1528L23.406 42.18C23.4546 42.3992 23.4841 42.5322 23.7202 43.1638C23.7572 43.2626 23.8543 43.4314 23.8248 43.3487C23.7554 43.1528 23.6525 42.7331 23.6491 42.6655C23.6381 42.5008 23.7901 42.6036 23.7277 42.706C23.7126 42.7279 23.7404 42.9736 23.7953 43.1054C23.8371 43.2059 23.8951 43.2875 23.952 43.3675C23.9997 43.4347 24.0467 43.5007 24.0826 43.5759C24.6011 44.6747 25.2768 45.7591 26.2473 46.4331C26.2502 46.43 26.2201 46.3953 26.1907 46.3615C26.1501 46.3147 26.1109 46.2697 26.1629 46.3123C26.2144 46.3545 26.9913 46.7903 27.6814 47.1146C27.9371 47.2342 28.1866 47.3312 28.3715 47.4031L28.3716 47.4031L28.3717 47.4031L28.3718 47.4032C28.5522 47.4733 28.6711 47.5195 28.6739 47.5395C28.6847 47.6072 28.4933 47.5239 28.3176 47.4474L28.3176 47.4474L28.3173 47.4472L28.3172 47.4472L28.3169 47.4471L28.3169 47.447C28.2469 47.4166 28.1794 47.3872 28.1283 47.369C28.1276 47.3702 28.1267 47.3715 28.1257 47.3729C28.1239 47.3753 28.1218 47.378 28.1207 47.3817C29.3953 47.9713 30.9907 48.0961 32.3641 47.9366H32.1936V47.9239C34.1277 47.8562 35.6988 46.7285 37.0543 45.4719C37.4369 45.1169 37.9022 44.5562 38.1531 44.0984C38.3676 43.7088 38.3895 43.8476 38.2739 44.1591C38.2437 44.2424 38.2084 44.3352 38.1738 44.4264C38.0611 44.7227 37.9548 45.0025 38.0485 44.8863C38.4746 44.3574 38.7116 43.7095 38.9461 43.0687C39.1044 42.6358 39.2616 42.2062 39.4751 41.8187C39.4623 41.892 39.449 41.9654 39.4355 42.0401L39.4354 42.0406L39.4353 42.0413C39.4255 42.0951 39.4156 42.1497 39.4057 42.2054C39.4697 42.2022 39.4912 42.1613 39.5125 42.1207C39.5267 42.0938 39.5407 42.0671 39.567 42.0516C39.5688 42.0606 39.5712 42.07 39.5738 42.0807L39.5772 42.0943L39.5814 42.1123L39.6287 42.0338C39.6637 41.9753 39.6972 41.9196 39.7317 41.8649C39.7345 41.8663 39.7388 41.8677 39.743 41.8691L39.7462 41.8701C39.6901 42.0565 39.6202 42.242 39.5502 42.4277L39.5501 42.4277C39.382 42.8736 39.2137 43.3202 39.2369 43.7805C39.8958 42.9491 39.9186 41.2198 39.9277 40.5313C39.9298 40.3664 39.9312 40.2611 39.9404 40.2424C40.0028 40.1106 39.9809 40.3834 39.9733 40.4661C39.9744 40.4661 39.9762 40.4624 39.9789 40.4568L39.9789 40.4567C39.9896 40.4344 40.0148 40.3823 40.0647 40.4146C40.145 40.4678 40.3063 41.5135 40.0444 41.9239C39.9531 42.0927 39.9034 42.3401 39.8595 42.7025C39.856 42.7406 39.9693 42.7557 40.1323 42.2135C40.0832 42.5158 40.0098 42.9349 39.9785 43.0429C38.7681 47.1545 34.1843 50.7314 29.7173 49.8707C29.7369 49.8614 29.7572 49.8522 29.7866 49.8395C26.1109 48.7129 22.2722 46.8175 21.5635 42.6823C21.559 42.6985 21.5567 42.7155 21.5546 42.7313C21.5508 42.7599 21.5476 42.7845 21.5323 42.7938C21.5161 42.8023 21.5133 42.7879 21.5105 42.7736C21.5091 42.7665 21.5076 42.7593 21.5046 42.7551C21.4896 42.7664 21.4857 42.7791 21.481 42.794C21.4759 42.8103 21.4699 42.8293 21.4479 42.8522C21.4261 42.8757 21.4268 42.8204 21.4278 42.7385C21.4288 42.6616 21.43 42.5612 21.4132 42.4805C21.3879 42.3647 21.4031 42.2604 21.413 42.1928C21.4173 42.1632 21.4206 42.1407 21.419 42.1273C21.4135 42.075 21.4398 42.0947 21.4726 42.1193C21.5158 42.1518 21.5703 42.1928 21.5785 42.0886C21.5854 42.0036 21.5812 41.9428 21.5782 41.8995C21.5741 41.8402 21.5723 41.8137 21.604 41.8031C21.6294 41.7938 21.6479 41.9054 21.6462 42.0354C21.6456 42.0836 21.6424 42.134 21.6395 42.1802C21.634 42.2694 21.6294 42.3427 21.6462 42.3522C21.6756 42.3721 21.6816 42.3007 21.6864 42.2437C21.6892 42.2112 21.6915 42.1833 21.6976 42.1799C21.7073 42.1729 21.7115 42.184 21.7166 42.1978C21.7194 42.2054 21.7226 42.2138 21.7271 42.2204L21.7287 42.1946C21.7312 42.1488 21.7342 42.0932 21.7525 42.0903C21.7678 42.0866 21.7754 42.1159 21.7839 42.1485C21.7885 42.1664 21.7934 42.1852 21.7999 42.2002C21.7947 42.1198 21.8895 42.0649 21.897 42.1325C21.9004 42.1568 21.8968 42.2022 21.8923 42.2607C21.8842 42.3654 21.8729 42.5118 21.8918 42.6528C21.8554 42.5724 21.8317 42.4401 21.8259 42.3158C21.8259 42.3574 21.8213 42.4078 21.8161 42.4648C21.7961 42.6841 21.767 43.0018 21.956 43.3013C21.959 43.2717 21.9457 43.2078 21.928 43.1221C21.9042 43.0069 21.8722 42.8525 21.8606 42.6898C21.8843 42.8216 21.9924 43.2649 22.0491 43.362C22.0754 43.4059 22.0496 43.2855 22.018 43.1385C21.9797 42.9599 21.933 42.7421 21.9612 42.732C21.9776 42.7257 21.986 42.7748 21.9945 42.8244C22.001 42.8625 22.0076 42.9009 22.0178 42.9152C22.0191 42.9082 22.0196 42.8983 22.0202 42.8873C22.0222 42.8521 22.0248 42.8058 22.0525 42.8071C22.0723 42.8081 22.0943 42.8851 22.1222 42.9832C22.1458 43.0658 22.1737 43.1634 22.208 43.2429C22.4323 43.7717 22.8733 44.384 23.1398 44.754C23.1714 44.7978 23.2005 44.8383 23.2265 44.8747C23.4402 45.1744 23.1882 44.7163 23.0501 44.4652C23.0294 44.4276 23.0112 44.3946 22.9976 44.3695C22.974 44.3259 22.9472 44.2736 22.918 44.2167C22.8184 44.0226 22.6913 43.7748 22.571 43.6331C22.56 43.6516 22.5988 43.7834 22.6335 43.8932C22.6174 43.8597 22.5974 43.8202 22.5759 43.7775L22.5759 43.7775C22.5139 43.6545 22.4389 43.5059 22.4063 43.4025C22.3953 43.3638 22.4612 43.362 22.4866 43.4245C22.5306 43.5273 22.5872 43.5747 22.6074 43.573C22.3583 42.9297 22.1109 42.2776 22.0323 41.5875C22.0537 41.6542 22.0732 41.7248 22.0927 41.7953C22.1298 41.93 22.1668 42.0643 22.2173 42.1701C22.2795 42.3006 22.1057 41.4927 21.9779 40.899C21.9477 40.7586 21.9201 40.6303 21.8988 40.5291C21.8958 40.5391 21.8918 40.5539 21.887 40.5714L21.887 40.5714L21.887 40.5715C21.8804 40.5956 21.8724 40.6246 21.8641 40.6534C21.7964 40.4296 21.8035 40.2102 21.8106 39.9911C21.8149 39.8604 21.8191 39.7298 21.8074 39.5984C21.8022 39.5418 21.8861 39.5418 21.8936 39.606C21.8968 39.6349 21.9002 39.6643 21.9036 39.6943L21.9036 39.6943C21.9102 39.7511 21.917 39.81 21.9231 39.8713C21.9475 39.8423 21.9589 39.8272 21.9688 39.8141L21.9728 39.8088C21.9185 40.0711 21.9726 40.3197 22.0267 40.5681L22.0267 40.5681C22.044 40.6476 22.0613 40.7272 22.0751 40.8071H22.0988C22.1334 40.5198 22.1039 40.2411 22.0749 39.9667C22.0361 39.5996 21.9981 39.2403 22.1155 38.8788L22.1071 38.8872L22.1069 38.8898H22.1063L22.1061 38.8882L22.1046 38.8898L22.1059 38.8851C22.0852 38.6555 22.1095 38.4293 22.1543 38.2048L22.1664 38.206L22.1785 38.2071C22.1667 38.321 22.1547 38.4347 22.1427 38.5484L22.1427 38.5484L22.1083 38.8763C22.3077 38.1523 22.4051 37.4205 22.5033 36.683C22.5211 36.55 22.5388 36.4168 22.5572 36.2834C22.5353 36.281 22.516 36.2794 22.4961 36.2778L22.4961 36.2778C22.4829 36.2767 22.4694 36.2756 22.4548 36.2742C22.4126 36.3892 22.3687 36.5065 22.3248 36.6239L22.3187 36.6217C22.3134 36.6197 22.3077 36.6176 22.3011 36.6164C22.3084 36.5848 22.319 36.5536 22.3297 36.5225C22.3561 36.445 22.3825 36.3676 22.3577 36.2851C22.3013 36.3025 22.2646 36.3387 22.2264 36.3764C22.2047 36.3978 22.1825 36.4197 22.156 36.4389C22.1786 36.1666 22.2989 35.9319 22.4231 35.6896L22.4231 35.6896L22.4231 35.6896C22.461 35.6156 22.4992 35.541 22.5352 35.4643L22.468 35.4693C22.4284 35.4722 22.3945 35.4748 22.356 35.4771C22.4686 35.2378 22.5767 34.9899 22.6858 34.7395C23.2051 33.5483 23.7493 32.2998 24.9329 31.6493C25.1311 31.5412 25.3138 31.4464 25.3196 31.5048C25.3228 31.5602 25.2228 31.6361 25.0585 31.7609L25.0265 31.7851C24.7589 31.9863 24.3508 32.373 24.2757 32.4516C24.24 32.4889 24.2942 32.4616 24.3557 32.4306L24.3557 32.4306L24.3557 32.4306C24.4239 32.3962 24.5012 32.3572 24.4751 32.3967C24.4668 32.4093 24.4427 32.4333 24.4131 32.4627C24.3314 32.5441 24.208 32.6669 24.2606 32.706C24.3011 32.7354 24.4878 32.6054 24.6693 32.4771C24.8814 32.3279 25.2098 32.1137 25.5802 31.872L25.5802 31.872L25.6017 31.858C25.6657 31.8164 25.7586 31.76 25.8584 31.6995L25.8584 31.6995L25.8584 31.6995C26.1361 31.5311 26.4663 31.3308 26.3693 31.3308C26.2387 31.3308 25.9931 31.4924 25.775 31.636L25.7687 31.6401C25.5491 31.7851 25.7121 31.5597 25.756 31.5285C25.7732 31.5167 25.7526 31.517 25.7281 31.5174C25.6926 31.518 25.6491 31.5187 25.7011 31.4828C25.7872 31.4227 25.8589 31.373 25.9392 31.3181C25.9367 31.3158 25.9156 31.3203 25.8919 31.3254C25.8453 31.3353 25.7883 31.3475 25.8404 31.3146C25.9173 31.2638 26.097 31.1499 26.2288 31.073C29.1849 29.3574 32.8988 29.8187 35.6612 31.6123C35.9883 31.862 36.3582 32.0783 36.7297 32.2955L36.7297 32.2955C37.5544 32.7777 38.3867 33.2644 38.7745 34.1308C38.7084 34.0562 38.6216 33.95 38.5332 33.8418L38.5331 33.8416L38.533 33.8415L38.5329 33.8414L38.5328 33.8413C38.3494 33.6167 38.159 33.3837 38.1317 33.4071C38.1156 33.4215 38.1342 33.4512 38.1496 33.476C38.1641 33.499 38.1757 33.5177 38.1537 33.5152L38.1486 33.5147C38.0962 33.5097 38.0299 33.5034 37.8861 33.3724C37.7358 33.2349 37.4242 32.9805 37.2375 32.8834C37.2206 33.0141 37.2972 33.0397 37.3788 33.0669C37.4563 33.0927 37.5384 33.1201 37.5491 33.2406C37.5517 33.233 37.5542 33.2263 37.5568 33.2191L37.5569 33.2189C37.5601 33.2103 37.5635 33.2011 37.5676 33.1892C37.6828 33.5352 37.9148 33.811 38.1482 34.0882L38.1482 34.0883C38.252 34.2116 38.3561 34.3352 38.4502 34.4655C38.4647 34.4435 38.4739 34.4291 38.4849 34.4106C38.552 34.517 38.6228 34.6225 38.6939 34.7287C38.9044 35.043 39.1186 35.3627 39.2543 35.7256C39.2087 35.6591 39.1626 35.5932 39.1144 35.5245L39.1144 35.5245L39.1143 35.5244C39.0696 35.4605 39.0232 35.3942 38.9739 35.3227C38.967 35.385 38.963 35.4257 38.9584 35.4733L38.9583 35.4735L38.9572 35.4857C38.9396 35.4695 38.9252 35.4573 38.9032 35.4387L38.8768 35.4164C39.3803 36.347 39.7664 37.2406 40.0889 38.3707C40.1034 38.4216 40.1212 38.4856 40.1397 38.5526L40.1398 38.553L40.1399 38.5531C40.1546 38.6062 40.1698 38.6611 40.1843 38.7129C40.1514 38.495 39.8456 37.2638 39.767 37.0314C39.7248 36.9031 39.7855 36.9857 39.8421 37.1268C39.867 37.1906 39.8896 37.268 39.9095 37.3361L39.9095 37.3361L39.9095 37.3362L39.9096 37.3362L39.9096 37.3363C39.9262 37.3933 39.941 37.4439 39.9537 37.4747C39.9559 37.4648 39.9552 37.4503 39.9544 37.4353C39.9528 37.4032 39.951 37.3684 39.9774 37.3684C40.0138 37.3684 40.1803 37.888 40.2849 38.3736C40.1768 38.0545 40.0745 37.9707 40.1219 38.1591ZM23.429 37.4111C23.4278 37.4128 23.4277 37.4156 23.4277 37.4174L23.429 37.4111ZM37.8346 45.8291C37.6514 46.058 37.6676 46.0562 37.8161 45.9464H37.8155C37.9618 45.8366 38.3941 45.3713 38.5884 45.1002C38.5485 45.199 38.4369 45.406 38.2462 45.6424C38.056 45.8788 37.5358 46.573 37.719 46.3586C37.7529 46.3192 37.7973 46.2696 37.8486 46.2122C38.075 45.9594 38.4377 45.5542 38.6421 45.199C38.8947 44.7649 39.0924 43.9944 39.078 43.8036C38.9403 44.3197 38.8493 44.4797 38.7395 44.6728L38.7395 44.6728C38.7212 44.7051 38.7023 44.7382 38.6826 44.7742C38.6144 44.8969 38.6227 44.8132 38.631 44.7279C38.6398 44.6388 38.6487 44.5478 38.571 44.688C38.419 44.9626 38.0178 45.6002 37.8346 45.8291ZM25.8566 46.3984C25.3895 46.1516 24.4225 45.1788 24.1901 44.5453C24.2433 44.8638 24.4155 45.1915 24.804 45.6915C24.6398 45.5921 24.5837 45.5314 24.4843 45.4135C24.3849 45.2956 24.2733 45.2695 24.3421 45.4048C24.4491 45.6146 25.0889 46.069 25.8566 46.3984ZM27.0514 31.1117C26.7837 31.2562 26.9907 31.1927 27.2196 31.121H27.2202C27.2958 31.0967 27.4087 31.0747 27.5225 31.0525C27.7533 31.0075 27.9875 30.9617 27.9213 30.8956C27.8225 30.795 27.2913 30.9834 27.0514 31.1117ZM35.6952 34.1299C35.5901 33.9172 35.4543 33.6425 35.1294 33.584C35.2427 33.7799 35.5375 34.0805 35.8306 34.3516C35.7823 34.306 35.7418 34.224 35.6952 34.1299ZM36.4265 34.0695C36.4265 34.0695 36.4647 34.2071 36.5618 34.2875H36.5624C36.6572 34.3678 36.7271 34.4025 36.6976 34.3678L36.6774 34.3436C36.6225 34.2772 36.4895 34.1167 36.4265 34.0695ZM51.9907 36.1886L51.1641 37.8198C51.1641 37.8198 50.2722 37.2002 49.3479 37.2002C48.652 37.2002 48.282 37.5158 48.282 38.0048C48.282 38.4938 49.13 38.8638 50.1525 39.299C51.1531 39.7233 52.2514 40.5713 52.2514 41.7458C52.2514 43.888 50.6202 44.6383 48.8693 44.6383C46.7705 44.6383 45.4982 43.4528 45.4982 43.4528L46.5207 41.7343C46.5207 41.7343 47.7173 42.7458 48.7173 42.7458C49.1629 42.7458 50.0115 42.7025 50.0115 41.8649C50.0115 41.3363 49.3833 41.0432 48.5784 40.6676L48.5784 40.6676C48.3897 40.5795 48.1913 40.4869 47.9889 40.3857C46.9121 39.8528 46.2814 39.0152 46.2814 38.0799C46.2814 36.4054 47.7606 35.3395 49.2069 35.3395C50.8381 35.3395 51.9907 36.1875 51.9907 36.1875V36.1886ZM60.4728 42.6811H63.5612V44.4753H58.4283V35.5031H60.4728V42.6805V42.6811ZM77.5572 39.984C77.5572 37.3626 75.534 35.3401 73.0439 35.3401C70.5751 35.3401 68.5196 37.3632 68.5196 39.984C68.5196 42.6048 70.4664 44.6383 73.0439 44.6383C75.6213 44.6383 77.5572 42.6054 77.5572 39.984ZM75.3496 39.984C75.3496 41.3216 74.6751 42.6591 73.0439 42.6591C71.3693 42.6591 70.7277 41.3216 70.7277 39.984C70.7277 38.6464 71.456 37.3088 73.0439 37.3088C74.6317 37.3088 75.3496 38.6464 75.3496 39.984ZM82.3311 35.5031H88.6387V37.2973H86.5069V44.4747H84.4624V37.2973H82.3306V35.5031H82.3311ZM101.536 39.1574H101.59L102.014 44.4753H104.059L103.254 35.5031H101.079L99.089 40.6799L97.0988 35.5031H94.9236L94.119 44.4753H96.1635L96.5878 39.1574H96.6421L98.4803 44.421H99.6982L101.536 39.1574ZM112.585 44.4753H110.54V35.5031H112.585V44.4753ZM124.895 42.6811H121.807V42.6805V35.5031H119.762V44.4753H124.895V42.6811ZM131.649 42.6811H134.738V44.4753H129.605V35.5031H131.649V42.6805V42.6811ZM38.4317 43.3678C38.3624 43.4967 38.2774 43.7401 38.4317 43.6083C38.5861 43.4765 38.5022 43.2366 38.4317 43.3678ZM39.6601 41.4618C39.656 41.5333 39.6506 41.6262 39.6271 41.6903C39.5387 41.9302 39.7884 41.6036 39.7126 41.4152C39.669 41.3069 39.6657 41.3646 39.6601 41.4618ZM21.4017 42.0487C21.4473 42.1406 21.4126 41.6331 21.3363 41.6366C21.26 41.6401 21.2254 41.6938 21.2595 41.8424C21.2811 41.9349 21.3165 41.9633 21.3492 41.9894C21.369 42.0052 21.3877 42.0202 21.4017 42.0482V42.0487ZM21.5208 41.5162L21.5335 41.5476H21.5329C21.5618 41.6216 21.5757 41.3961 21.5473 41.3013C21.519 41.2065 21.4785 41.1892 21.4473 41.2325C21.4201 41.2703 21.4864 41.4324 21.5208 41.5162ZM22.8936 41.6811L22.8991 41.66C22.913 41.6079 22.939 41.5103 22.9161 41.4938C22.8895 41.4747 22.8635 41.4898 22.8548 41.5464C22.8462 41.6031 22.8826 41.7262 22.8936 41.6811ZM21.6046 41.0279C21.682 41.0227 21.6265 41.1193 21.5849 41.1568C21.5629 41.1771 21.5144 41.0337 21.6046 41.0279ZM21.8415 41.9175C21.9028 41.9331 21.8612 41.9898 21.8294 42.0071C21.8126 42.0164 21.7699 41.899 21.8415 41.9175ZM38.0994 37.8198C38.0034 37.5568 37.8496 37.2759 37.9069 37.4158V37.4164C37.9639 37.5552 38.0127 37.7405 38.0539 37.8968L38.0539 37.8968L38.054 37.8968C38.1097 38.1081 38.1514 38.2663 38.1803 38.1846C38.2068 38.1104 38.1629 37.9917 38.1102 37.8493L38.0994 37.8198ZM38.0415 36.6314C38.1433 36.8181 38.2086 36.9175 38.2485 36.9002C38.2884 36.8828 38.3057 36.7973 38.2485 36.7227C38.1913 36.6482 37.9843 36.5256 38.0415 36.6314ZM38.4074 36.9464C38.4317 37.021 38.5647 36.9869 38.5086 36.9112C38.4525 36.8354 38.3809 36.8649 38.4074 36.9464ZM39.719 41.0441C39.7254 41.1117 39.5982 41.1088 39.6184 41.0343C39.6387 40.9597 39.7121 40.9707 39.719 41.0441ZM40.0878 42.2025C40.1173 42.1013 40.0248 42.0846 40.0161 42.1782C40.0069 42.2805 40.0583 42.3036 40.0878 42.2025ZM39.4693 41.6557C39.4965 41.7909 39.3109 41.9031 39.3207 41.7273C39.3306 41.5516 39.4392 41.5077 39.4693 41.6557ZM25.3685 31.3134L25.3685 31.3134C25.3496 31.3238 25.332 31.3336 25.3173 31.3424V31.3429C25.2352 31.3921 25.2583 31.3273 25.3173 31.2684C25.3762 31.2094 25.5173 31.1042 25.5456 31.158C25.5689 31.2022 25.4555 31.2651 25.3685 31.3134ZM23.6283 42.4834C23.5774 42.4568 23.6196 42.395 23.6514 42.4146C23.6832 42.4343 23.6941 42.5175 23.6283 42.4834ZM37.3346 37.0262C37.2878 37.036 37.3306 37.1713 37.3843 37.1522C37.4381 37.1331 37.3884 37.0146 37.3346 37.0262ZM38.041 36.3308C37.9941 36.3406 38.0109 36.4123 38.0641 36.3932C38.1173 36.3742 38.0941 36.3192 38.041 36.3308ZM37.8855 37.1736C37.8681 37.11 38.0525 37.273 38.0069 37.351C37.9612 37.4291 37.9138 37.2747 37.8855 37.1736ZM27.2514 32.6909C27.1791 32.7273 27.0999 32.7823 27.1826 32.8025C27.2658 32.8227 27.3398 32.7794 27.3572 32.7164C27.3745 32.6534 27.3248 32.6539 27.2514 32.6903V32.6909ZM134.883 33.9216C134.883 34.9909 135.748 35.8568 136.818 35.8568C137.88 35.8568 138.754 34.9909 138.754 33.9216C138.754 32.8522 137.888 31.9863 136.818 31.9863C135.749 31.9863 134.883 32.8522 134.883 33.9216ZM136.818 35.7279C135.82 35.7279 135.012 34.9204 135.012 33.9216C135.012 32.9308 135.82 32.1152 136.818 32.1152C137.817 32.1152 138.625 32.9227 138.625 33.9216C138.625 34.9204 137.817 35.7279 136.818 35.7279ZM136.739 32.8892C136.531 32.8892 136.294 32.91 136.119 32.9349V34.9574H136.373V34.0586H136.776C137.055 34.0834 137.172 34.1961 137.234 34.4499C137.313 34.7666 137.359 34.9036 137.392 34.958H137.676C137.613 34.8586 137.555 34.6626 137.472 34.3505C137.426 34.184 137.305 34.0256 137.11 33.984V33.9713C137.409 33.9297 137.588 33.7175 137.588 33.451C137.588 33.1973 137.443 32.8892 136.739 32.8892ZM136.806 33.8591H136.373V33.1181C136.448 33.1019 136.56 33.0892 136.747 33.0892C137.118 33.0892 137.326 33.2181 137.326 33.4805C137.326 33.7054 137.147 33.8591 136.806 33.8591Z" fill="#CCCCCC"/>
</svg>
