<svg width="160" height="80" fill="none" xmlns="http://www.w3.org/2000/svg">
<rect width="160" height="80" rx="8" fill="#191919"/>
<path fill-rule="evenodd" clip-rule="evenodd" d="M36.8357 45.0526C38.5862 43.4845 39.2756 40.1239 37.2027 36.7305C35.2933 33.6083 30.7152 30.5492 30.5189 30.4207L29.8879 30L29.2545 30.4207C29.1156 30.5127 26.7269 32.1086 24.6811 34.1552C23.8682 34.9674 23.109 35.851 22.5661 36.7399C20.4955 40.1285 21.1826 43.4891 22.933 45.0549C23.6756 45.7193 24.62 45.9922 25.5091 46.0756C25.8672 46.11 26.2164 46.1137 26.5398 46.1C26.4465 46.2814 26.3208 46.465 26.158 46.6394C25.4966 47.3475 24.3609 47.7097 22.7811 47.7097V48.6235H22.7857V48.6305C24.646 48.6305 26.0201 48.1655 26.8591 47.2447C27.5976 46.4408 27.7308 45.4826 27.7495 45.0245L27.7399 45.0265L27.7402 45.0199C27.0398 45.1654 25.21 45.4367 23.9357 44.6577C23.801 44.5749 23.6725 44.4803 23.5523 44.3725C22.0846 43.0591 21.5448 40.1776 23.356 37.212C25.1148 34.3322 29.3567 31.4592 29.7398 31.1997L29.7617 31.1849L29.8785 31.107L30.0024 31.1895L30.012 31.196C30.3051 31.3934 34.6207 34.2993 36.4034 37.212C38.2146 40.1753 37.6747 43.0545 36.2071 44.3678C34.9475 45.4966 32.7881 45.1811 32.0098 45.0199C32.0285 45.4779 32.1641 46.4337 32.9002 47.2377C33.2448 47.6147 33.6779 47.9154 34.197 48.139C34.9492 48.466 35.8836 48.6305 36.99 48.6305V47.7144L36.9713 47.7144V47.7097C36.2617 47.7097 35.6413 47.6367 35.1131 47.492C34.4733 47.3143 33.9706 47.0307 33.6107 46.6441C33.4448 46.4688 33.3209 46.2842 33.2251 46.0996C34.3539 46.1486 35.7934 45.9897 36.8381 45.0549L36.8357 45.0526ZM32.5707 47.5462C31.4501 46.3195 31.5626 44.8175 31.5702 44.7148L31.5705 44.7114L31.5939 44.4426L31.8603 44.5127C31.8837 44.5197 34.5829 45.2279 35.922 44.0313C37.2167 42.8698 37.6934 40.1706 36.0295 37.448C34.4473 34.8586 30.638 32.1641 29.8902 31.6499C29.1447 32.1641 25.3331 34.8563 23.7509 37.448C22.087 40.1706 22.5637 42.8698 23.8584 44.0313C25.1975 45.2279 27.8944 44.5197 27.9201 44.5127L28.1865 44.4426L28.2099 44.7114L28.2101 44.7144C28.2175 44.814 28.3293 46.3181 27.2097 47.5462C26.2749 48.5651 24.7909 49.0862 22.7904 49.0862V50C25.0596 50 26.7726 49.3807 27.8827 48.1631C29.2031 46.7165 29.154 45.2512 29.133 44.6343C29.112 44.0196 28.9928 43.2811 28.9928 43.2811L27.6864 43.6294C27.1068 43.7813 25.27 44.0594 24.4707 43.3466C23.4518 42.4351 23.1269 40.2243 24.5315 37.9271C25.7934 35.8635 28.6235 33.6854 29.8925 32.774C31.1615 33.6854 33.9916 35.8635 35.2536 37.9271C36.6558 40.2243 36.331 42.4375 35.3144 43.3466C34.5151 44.0594 32.6759 43.7813 32.0987 43.6294L30.7923 43.2811C30.7923 43.2811 30.6708 44.0196 30.6497 44.6343C30.6287 45.2512 30.5796 46.7165 31.9 48.1631C33.0124 49.3807 34.7231 50 36.9923 50V49.0862C34.9942 49.0862 33.5079 48.5651 32.5731 47.5462H32.5707ZM45.9009 38.3688C46.1627 38.5908 46.7563 39.0442 47.6724 39.7289L47.6747 39.7266C48.4997 40.3505 49.0676 40.8647 49.3737 41.2737C49.6799 41.7107 49.8341 42.2108 49.8341 42.7717C49.8341 43.6691 49.4882 44.3912 48.7988 44.9427C48.1094 45.4966 47.205 45.7677 46.0856 45.7677C45.6649 45.7677 45.1952 45.721 44.6694 45.6251C44.1459 45.5293 43.7813 45.4288 43.5756 45.326C43.4635 45.2746 43.405 45.1671 43.405 45.0035V42.8465H43.7906C43.9028 43.5008 44.0477 43.9729 44.2323 44.2463C44.6904 44.924 45.3447 45.2606 46.1884 45.2606C46.7797 45.2606 47.2704 45.0713 47.656 44.695C48.0463 44.3141 48.2379 43.8467 48.2379 43.2718C48.2379 42.7273 48.0557 42.2435 47.6911 41.8158C47.3242 41.3882 46.574 40.7735 45.4406 39.979C44.7184 39.4718 44.2206 39.0325 43.9519 38.6726C43.6808 38.3104 43.5453 37.8733 43.5453 37.3615C43.5453 36.5062 43.9028 35.8308 44.6156 35.34C45.2372 34.9147 45.9991 34.6997 46.8942 34.6997C48.0977 34.6997 48.8058 34.8165 49.0185 35.0502C49.0606 35.0783 49.0793 35.1437 49.0793 35.2325V37.1909H48.6796C48.481 35.8869 47.8336 35.2325 46.7423 35.2325C46.2305 35.2325 45.8285 35.3821 45.5317 35.6766C45.2372 35.9757 45.09 36.3683 45.09 36.8684C45.09 37.2587 45.1905 37.5672 45.3845 37.8032C45.5761 38.0346 45.7467 38.2262 45.9009 38.3688ZM55.6392 37.7612C54.5595 37.7612 53.6831 38.1771 53.0077 39.0115V37.7612C52.3464 38.1327 51.4794 38.3501 50.4067 38.3992V38.7824H50.7596C51.0867 38.7824 51.3111 38.8292 51.442 38.9203C51.5658 39.0138 51.6336 39.2171 51.6336 39.5326V47.4831C51.6336 48.1468 51.5775 48.5464 51.463 48.6843C51.3508 48.8222 51.0003 48.932 50.4067 49.0115V49.4064H54.5805V49.0115C53.8093 48.9413 53.3536 48.8362 53.2157 48.7076C53.0755 48.5721 53.0077 48.1631 53.0077 47.4807V45.4148C53.599 45.6509 54.1762 45.7654 54.7371 45.7654C55.9009 45.7654 56.8615 45.3541 57.628 44.5268C58.3922 43.7018 58.7731 42.6455 58.7731 41.3648C58.7731 40.2641 58.4857 39.3854 57.9178 38.7333C57.3475 38.0813 56.5904 37.7588 55.6392 37.7588V37.7612ZM56.5927 44.3328C56.151 44.9544 55.5317 45.2652 54.7371 45.2652C54.1272 45.2652 53.5499 45.0292 53.0077 44.5455V41.8509C53.0077 41.033 53.0498 40.4394 53.1316 40.0724C53.3653 39.0208 53.9729 38.495 54.9521 38.495C55.6626 38.495 56.2258 38.7754 56.6394 39.3433C57.0531 39.9089 57.2587 40.6894 57.2587 41.6803C57.2587 42.8254 57.0391 43.7088 56.5904 44.3351L56.5927 44.3328ZM65.3541 44.494C65.4312 44.6623 65.5714 44.7441 65.7771 44.7441V44.7464C65.8986 44.7464 66.0716 44.709 66.2936 44.6413L66.3894 45.0666L64.216 45.756C63.9893 45.3798 63.8678 44.9778 63.8444 44.5478L62.6689 45.333C62.2506 45.6158 61.879 45.756 61.5541 45.756C60.9629 45.756 60.4815 45.5644 60.1169 45.1835C59.75 44.8002 59.5677 44.3071 59.5677 43.6925C59.5677 42.8815 59.9533 42.2435 60.7268 41.7878C61.033 41.6055 61.5238 41.3835 62.1968 41.1311L63.8608 40.4884C63.8514 39.0044 63.412 38.2636 62.5497 38.2636C61.9958 38.2636 61.5261 38.6329 61.1265 39.3784C60.9956 39.6237 60.8881 39.7476 60.8086 39.7476C60.7666 39.7476 60.7268 39.7406 60.6848 39.7312L60.2104 39.6097C60.1099 39.5793 60.0701 39.5279 60.0888 39.4555L60.3179 38.5955C60.3693 38.3968 60.5025 38.2473 60.7175 38.1561C61.2971 37.892 61.9514 37.7612 62.6712 37.7612C63.5663 37.7612 64.2206 37.9528 64.6296 38.3407C65.0386 38.724 65.2396 39.3503 65.2396 40.2057V43.5966C65.2396 44.0266 65.2793 44.3258 65.3541 44.494ZM62.1992 44.8072C63.3092 44.8072 63.8631 43.9612 63.8631 42.2622H63.8654V41.0727C63.3045 41.2783 62.8488 41.4489 62.5053 41.5938C61.4677 42.0308 60.9465 42.6688 60.9465 43.5125C60.9465 43.8958 61.061 44.2089 61.2877 44.4496C61.5191 44.6903 61.8206 44.8072 62.1992 44.8072ZM74.6448 44.7441C74.2763 44.7433 74.0944 44.36 74.0944 43.5943V34.3164C73.2672 34.6249 72.4001 34.7745 71.4934 34.7745V35.1858H71.9047C72.2015 35.1858 72.4118 35.2325 72.531 35.326C72.6549 35.4172 72.7133 35.6602 72.7133 36.0598V38.0019C72.1945 37.8359 71.6406 37.7588 71.0517 37.7588C69.8248 37.7588 68.8339 38.1304 68.0767 38.8759C67.3148 39.6261 66.9339 40.6006 66.9339 41.8018C66.9339 42.9212 67.2634 43.8584 67.9201 44.6156C68.5791 45.3727 69.3877 45.756 70.3436 45.756C70.7105 45.756 71.1592 45.6018 71.6873 45.2863L72.7109 44.6833V44.7862C72.7343 45.1764 72.8442 45.4966 73.0498 45.7537L75.2536 45.0643L75.1461 44.6389C74.9201 44.7065 74.7569 44.7439 74.6448 44.7441ZM72.7156 42.961C72.7156 43.5709 72.6292 43.9752 72.4515 44.1739C72.2716 44.3725 72.0426 44.5408 71.7528 44.6857C71.4396 44.8376 71.1405 44.9147 70.8671 44.9147C70.0795 44.9147 69.4649 44.501 69.0162 43.6784C68.6422 42.996 68.4506 42.2295 68.4506 41.3742C68.4506 40.5188 68.6446 39.8341 69.0325 39.2545C69.4812 38.5931 70.0959 38.2636 70.8834 38.2636C71.671 38.2636 72.2856 38.5744 72.7133 39.1937V42.961H72.7156ZM79.3387 37.7612C80.7362 37.7612 81.6313 38.4085 82.0309 39.7149H82.0332C82.1548 40.1215 82.2108 40.6684 82.2015 41.3508H77.2751C77.2985 42.9212 77.7963 43.9799 78.7731 44.5291C79.1704 44.7651 79.6472 44.8843 80.1963 44.8843C80.6894 44.8843 81.276 44.709 81.9701 44.3608L82.1991 44.8212L80.2104 45.7677H79.8131C78.4693 45.7677 77.4761 45.3821 76.8334 44.6062C76.1393 43.7649 75.7934 42.7249 75.7934 41.6265C75.7934 40.5282 76.1323 39.5934 76.8171 38.8292C77.4504 38.1164 78.2894 37.7612 79.3387 37.7612ZM77.2751 40.8016H79.9066V40.8039C80.5609 40.8039 80.8834 40.5071 80.8834 39.9135C80.8834 39.4461 80.7292 39.0559 80.4184 38.738C80.1075 38.4202 79.7102 38.2636 79.2335 38.2636C78.3338 38.2636 77.7378 38.7591 77.4434 39.7476C77.3733 39.9883 77.3172 40.3435 77.2751 40.8016ZM90.5633 37.9505L90.3927 37.7612C89.7406 37.9107 89.0092 37.9855 88.2029 37.9855C88.065 37.9855 87.9295 37.9832 87.8103 37.9738C87.392 37.8289 86.9456 37.7612 86.4618 37.7612C85.5574 37.7612 84.8166 37.9972 84.2464 38.4693C83.6761 38.9437 83.391 39.5653 83.391 40.3435C83.391 41.4443 83.9729 42.2552 85.1321 42.774L83.6668 43.9822V44.1038C83.6551 44.1645 83.6481 44.2113 83.6481 44.2416C83.6481 44.702 83.9799 45.0082 84.6436 45.1624L83.0381 46.0294C82.9143 46.1042 82.8535 46.2865 82.8535 46.581C82.8535 47.205 83.0171 47.7308 83.3419 48.1584C83.627 48.5324 84.05 48.8385 84.6016 49.0675C85.1601 49.2989 85.7561 49.4087 86.4011 49.4087C87.392 49.4087 88.2006 49.175 88.8315 48.71C89.6378 48.1234 90.0421 47.3966 90.0421 46.5342C90.0421 45.6719 89.6378 45.0736 88.8315 44.7114C88.4646 44.5455 87.8991 44.4099 87.1325 44.3001C86.3403 44.1856 85.7934 44.0757 85.4967 43.9635C85.2933 43.8841 85.1928 43.7602 85.1928 43.599C85.1928 43.4143 85.3331 43.211 85.6182 42.989H86.2164C87.0695 42.989 87.7822 42.739 88.3525 42.2388C88.9274 41.7387 89.2148 41.1171 89.2148 40.3763C89.2148 39.6822 88.9928 39.0909 88.5534 38.5978H90.1262L90.5586 37.9528L90.5633 37.9505ZM84.3585 46.0949C84.536 45.859 84.8535 45.5905 85.3367 45.2799L86.8334 45.5434C87.1886 45.6041 87.4995 45.6742 87.7659 45.7584C88.4787 45.9734 88.8362 46.4244 88.8362 47.1091C88.8362 47.6303 88.6165 48.0626 88.1819 48.4015C87.7402 48.738 87.1816 48.9039 86.4992 48.9039C85.8168 48.9039 85.2326 48.7193 84.7769 48.3594C84.3235 47.9972 84.0968 47.5321 84.0968 46.9689C84.0968 46.6207 84.1833 46.3309 84.3585 46.0949ZM86.4934 42.5613C86.0242 42.561 85.639 42.3249 85.3377 41.8626C85.0363 41.3999 84.8867 40.8179 84.8867 40.1145C84.8867 39.4999 85.0199 39.0255 85.2863 38.6773C85.5504 38.329 85.9173 38.1561 86.387 38.1561C86.8264 38.1561 87.1676 38.3641 87.4177 38.7824C87.6677 39.1984 87.7939 39.7827 87.7939 40.5282C87.7939 41.883 87.3596 42.5607 86.4934 42.5613ZM96.3473 44.494C96.4244 44.6623 96.5647 44.7441 96.7703 44.7441L96.7726 44.7464C96.8918 44.7464 97.0694 44.709 97.2915 44.6413L97.3803 45.0666L95.2115 45.756C94.9895 45.3798 94.8657 44.9778 94.84 44.5478L93.6644 45.333C93.2485 45.6158 92.8769 45.756 92.5474 45.756C91.9584 45.756 91.4817 45.5644 91.1124 45.1835C90.7432 44.8002 90.5633 44.3071 90.5633 43.6925C90.5633 42.8815 90.9489 42.2435 91.7224 41.7878C92.0309 41.6055 92.517 41.3835 93.19 41.1311L94.8586 40.4884C94.847 39.0044 94.41 38.2636 93.5429 38.2636C92.9914 38.2636 92.517 38.6329 92.122 39.3784C91.9888 39.6237 91.8837 39.7476 91.8019 39.7476C91.7598 39.7476 91.7201 39.7406 91.6803 39.7312L91.2036 39.6097C91.1031 39.5793 91.0634 39.5279 91.0821 39.4555L91.3111 38.5955C91.3648 38.3968 91.498 38.2473 91.706 38.1561C92.288 37.892 92.9423 37.7612 93.6644 37.7612C94.5619 37.7612 95.2115 37.9528 95.6228 38.3407C96.0295 38.724 96.2328 39.3503 96.2328 40.2057V43.5966C96.2328 44.0266 96.2725 44.3258 96.3473 44.494ZM93.19 44.8072C94.3024 44.8072 94.8586 43.9612 94.8586 42.2622H94.861V41.0727C94.3001 41.2783 93.8467 41.4489 93.4985 41.5938C92.4609 42.0308 91.9397 42.6688 91.9397 43.5125C91.9397 43.8958 92.0543 44.2089 92.2809 44.4496C92.5123 44.6903 92.8161 44.8072 93.19 44.8072ZM110.131 43.6714V40.4767C110.131 39.9346 110.101 39.5256 110.04 39.2381C109.815 38.2519 109.121 37.7588 107.96 37.7588C106.92 37.7588 105.997 38.2029 105.195 39.1026C104.968 38.6025 104.714 38.2543 104.422 38.0556C104.13 37.857 103.721 37.7612 103.19 37.7612C102.068 37.7612 101.138 38.2052 100.407 39.1049V37.7612C99.7243 38.1468 98.8596 38.3641 97.8079 38.4155V38.7964H98.1562C98.4927 38.7964 98.724 38.8455 98.8456 38.9437C98.9694 39.0372 99.0302 39.2405 99.0302 39.5466V43.6738C99.0302 44.3585 98.9764 44.7675 98.8689 44.896C98.7614 45.0292 98.4109 45.125 97.8079 45.1881V45.5901H101.645V45.1881C101.035 45.125 100.678 45.0292 100.57 44.896C100.463 44.7675 100.409 44.3585 100.409 43.6738V41.8883C100.409 40.5422 100.594 39.6494 100.963 39.2124C101.295 38.8035 101.781 38.5955 102.412 38.5955C102.973 38.5955 103.358 38.7684 103.573 39.1026C103.786 39.4391 103.891 40.0304 103.891 40.8787V43.6738C103.891 44.3585 103.842 44.7675 103.735 44.896C103.627 45.0292 103.272 45.125 102.674 45.1881V45.5901H106.509V45.1881C105.899 45.125 105.539 45.0292 105.434 44.896C105.326 44.7675 105.27 44.3585 105.27 43.6738V41.8883C105.27 41.2246 105.289 40.7665 105.319 40.5095C105.389 39.9813 105.548 39.556 105.796 39.2405C106.13 38.8105 106.618 38.5955 107.259 38.5955C107.81 38.5955 108.198 38.7707 108.423 39.1119C108.647 39.4508 108.759 40.0421 108.759 40.8787V43.6738C108.759 44.3585 108.703 44.7675 108.598 44.896C108.49 45.0292 108.135 45.125 107.537 45.1881V45.5901H111.358V45.1881C110.746 45.125 110.388 45.0339 110.287 44.9053C110.185 44.7792 110.133 44.3702 110.133 43.6738L110.131 43.6714ZM114.228 36.4945C114.057 36.6651 113.844 36.7469 113.587 36.7469C113.342 36.7469 113.132 36.6651 112.961 36.4898C112.788 36.3122 112.702 36.0972 112.702 35.8425C112.702 35.6111 112.788 35.4078 112.968 35.2325C113.146 35.0596 113.358 34.9731 113.604 34.9731C113.835 34.9731 114.045 35.0619 114.223 35.2325C114.398 35.4055 114.489 35.6064 114.489 35.8612C114.489 36.1159 114.403 36.3262 114.228 36.4945ZM114.569 44.8095C114.466 44.6646 114.415 44.2603 114.415 43.5966V37.684C113.732 38.0696 112.865 38.287 111.816 38.3384V38.7193H112.164C112.501 38.7193 112.732 38.7637 112.856 38.8572C112.977 38.9484 113.038 39.1517 113.038 39.4672V43.5943C113.038 44.279 112.984 44.688 112.877 44.8165C112.769 44.9498 112.416 45.0456 111.816 45.1087V45.5106H115.637V45.1087C115.027 45.0479 114.667 44.9498 114.569 44.8072V44.8095ZM124.094 43.5966C124.094 44.2814 124.141 44.681 124.232 44.7908L124.23 44.7955C124.33 44.9474 124.69 45.0549 125.314 45.1157V45.5176H121.493V45.1157C122.115 45.0549 122.482 44.9381 122.594 44.7651C122.676 44.6436 122.718 44.2533 122.718 43.6013V40.7735C122.718 39.9416 122.592 39.355 122.335 39.0185C122.08 38.6819 121.631 38.5113 120.989 38.5113C119.839 38.5113 119.14 39.0582 118.897 40.1472C118.813 40.5165 118.773 41.04 118.773 41.7224V43.6013C118.773 44.265 118.829 44.6646 118.934 44.7955C119.04 44.9287 119.399 45.0339 120.012 45.1157V45.5176H116.174V45.1157C116.763 45.0339 117.116 44.924 117.226 44.7885C117.341 44.6483 117.394 44.251 117.394 43.599V39.4578C117.394 39.1423 117.336 38.939 117.205 38.8455C117.076 38.7544 116.852 38.7076 116.527 38.7076H116.174V38.3244C117.242 38.2753 118.107 38.058 118.771 37.6864V39.0161C119.598 38.1281 120.617 37.6864 121.83 37.6864C122.942 37.6864 123.653 38.1164 123.957 38.9834C124.048 39.2475 124.094 39.7102 124.094 40.3739V43.5966ZM133.559 37.8757L133.389 37.6864C132.739 37.8359 132.01 37.9107 131.204 37.9107C131.063 37.9107 130.93 37.9084 130.809 37.899C130.388 37.7541 129.942 37.6864 129.458 37.6864C128.553 37.6864 127.815 37.9224 127.245 38.3945C126.672 38.8689 126.389 39.4905 126.389 40.2688C126.389 41.3695 126.969 42.1804 128.13 42.6992L126.663 43.9075V44.029C126.651 44.0897 126.646 44.1365 126.646 44.1669C126.646 44.6273 126.981 44.9334 127.642 45.0876L126.036 45.9547C125.913 46.0271 125.854 46.2117 125.854 46.5039C125.854 47.1278 126.015 47.6537 126.343 48.0813C126.628 48.4576 127.046 48.7614 127.605 48.9904C128.161 49.2218 128.759 49.3316 129.399 49.3316C130.39 49.3316 131.201 49.1003 131.835 48.6329C132.636 48.0486 133.043 47.3195 133.043 46.4571C133.043 45.5948 132.636 44.9965 131.835 44.6343C131.463 44.4707 130.9 44.3328 130.136 44.2229C129.341 44.1084 128.796 43.9986 128.5 43.8864C128.294 43.807 128.191 43.6831 128.191 43.5219C128.191 43.3372 128.338 43.1339 128.624 42.9142H129.217C130.072 42.9142 130.79 42.6642 131.358 42.1641C131.928 41.6639 132.216 41.0423 132.216 40.2991C132.216 39.605 131.996 39.0161 131.559 38.5207H133.132L133.564 37.8757H133.559ZM128.327 45.2045L129.827 45.4686C130.185 45.527 130.493 45.5971 130.762 45.6812C131.475 45.8962 131.832 46.3473 131.832 47.032C131.832 47.5532 131.613 47.9855 131.173 48.3244C130.734 48.6609 130.175 48.8292 129.491 48.8292C128.806 48.8292 128.224 48.6445 127.773 48.2823C127.317 47.9201 127.09 47.455 127.09 46.8918C127.09 46.5436 127.177 46.2538 127.35 46.0178C127.523 45.7817 127.85 45.513 128.327 45.2021V45.2045ZM129.491 42.4866C129.023 42.4866 128.638 42.2505 128.336 41.7878C128.035 41.3251 127.885 40.7432 127.885 40.0397C127.885 39.4251 128.016 38.9507 128.285 38.6025C128.549 38.2543 128.918 38.0813 129.383 38.0813C129.822 38.0813 130.166 38.2893 130.416 38.7076C130.664 39.1236 130.79 39.7079 130.79 40.4534C130.79 41.8088 130.358 42.4889 129.493 42.4889L129.491 42.4866ZM135.104 38.509H134.394V38.2286H136.114V38.509H135.403V40.437H135.104V38.509ZM136.857 38.2286H136.41H136.408V40.437H136.707V38.6235H136.714L137.46 40.437H137.658L138.404 38.6235H138.411V40.437H138.71V38.2286H138.264L137.57 39.8995H137.558L136.857 38.2286Z" fill="#CCCCCC"/>
</svg>
